<?xml version="1.0" encoding="utf-8"?>
<!-- Generator: Adobe Illustrator 22.0.0, SVG Export Plug-In . SVG Version: 6.00 Build 0)  -->
<svg version="1.1" id="Layer_1" xmlns="http://www.w3.org/2000/svg" xmlns:xlink="http://www.w3.org/1999/xlink" x="0px" y="0px"
	 viewBox="0 0 1200 669" style="enable-background:new 0 0 1200 669;" xml:space="preserve">
<style type="text/css">
	.st0{
		fill:#FFFFFF;
	}
	.st1{
		opacity:0.65;
		fill:url(#SVGID_1_);
	}
	.st2{
		opacity:0.5;
		fill:#FFFFFF;
	}
	.st3{
		opacity:0.2;
		fill:#B4E7DE;
	}
	.st4{
		fill:#B8D7F5;
	}
	.st5{
		fill:#CDE1FF;
	}
	.st6{
		opacity:0.5;
		fill:#B8D7F5;
	}
	.st7{
		fill:#DCF0FF;
	}
	.st8{
		opacity:0.3;
		fill:#B8D7F5;
	}
</style>
<rect class="st0" width="1200" height="669"/>
<linearGradient id="SVGID_1_" gradientUnits="userSpaceOnUse" x1="599.9345" y1="546.9779" x2="599.9345" y2="-61.097" gradientTransform="matrix(1 1.429644e-04 -1.429644e-04 1 0.1133 -0.1995)">
	<stop  offset="0" style="stop-color:#FFA9D7;stop-opacity:0"/>
	<stop  offset="5.897194e-02" style="stop-color:#FFB1DB;stop-opacity:0.1843"/>
	<stop  offset="0.1491" style="stop-color:#FFC6E4;stop-opacity:0.4658"/>
	<stop  offset="0.2584" style="stop-color:#FFE8F4;stop-opacity:0.8076"/>
	<stop  offset="0.32" style="stop-color:#FFFFFF"/>
	<stop  offset="0.5263" style="stop-color:#FFB5DE;stop-opacity:0.6967"/>
	<stop  offset="1" style="stop-color:#FF008C;stop-opacity:0"/>
</linearGradient>
<rect x="0" y="0.1" class="st1" width="1200" height="669"/>
<g>
	<path class="st2" d="M356.1,192.1c-47-0.9-202.1-25.5-356.1-82.9l0-20.7c3.6-0.5,7.5-0.8,11.7-0.8c19.3,0.2,18.4,13,18.4,13
		s16.7-4.2,28.4,2.1c11.7,6.3,17.2,21,17.2,21s20.9-2.5,29.2,0.5c8.4,3,6.4,11,6.4,11s37-9.9,45.9-4.2c8.9,5.7,24.7,26.7,24.7,26.7
		s19-7.4,23.8-4.5c4.8,2.9,12,12.8,12,12.8S272.7,180.5,356.1,192.1z"/>
	<path class="st2" d="M1044,81.8c-77.5,32.5-195.4,66.6-381,65.8c0,0,103.7-8.9,119.1-13.2c12.9-22.4,32.6-15.6,43.1-6.8
		c21-30.2,64.6-29,93.3-15.5c11.5-11.1,27.6-21.4,45-30.2L1044,81.8z"/>
	<path class="st2" d="M1200,178.6l0,18.3c-89.3,29.5-213.5,65.9-293,70.2l84.5-16.9c0,0,6.4-9.6,17.1-13.7c10.7-4,25.7,3.2,25.7,3.2
		s26.7-19.3,49.2-18.5c12.8-22.5,62-43.4,74.9-21.7C1167.9,180.1,1184.2,177.2,1200,178.6z"/>
	<path class="st3" d="M599,586.2c163.6,9.7,474.8-49.8,572.1-87.6c-37.4,4-92,6.4-101.6,19.3c-17.1-20.1-32.1-28.1-49.2,4
		c-27.8-9.7-55.6-28.1-87.7,24.9c-22.5-21.7-41.7-21.7-56.7,12.1c-23.5-5.6-36.4,0-40.6,8.8C815,542.8,740.1,579,740.1,579
		s-15-18.5-49.2,2.4C655.7,582.2,599,586.2,599,586.2z"/>
</g>
<g>
	<path class="st4" d="M234,519.3c17.8-12,42.8,13.4,49.9,36.6c22.8-21,46.3-27.7,74.1,8.9c24.2-8.9,27.8-3.1,27.8,11.6
		c20.7-12.5,39.9,0.9,42.8,13.8c17.8-7.6,25.7-5.4,31.4,6.7c12.8-4.9,39.2,6.3,39.2,6.3s-42.8,12.9-87,14.3
		c-44.2,1.3-164.7-8.5-176.8-25C223.3,576,234,519.3,234,519.3z"/>
	<path class="st4" d="M1200,615.3l0,53.9L0,669l0-57.6l182,1.6l114,1c7.8-0.7,15.6-1.5,23.6-2.1c32.3-2.8,65.8-5,99.7-6.7
		c142.6-7.3,292.7-5.7,397.9,1.8c46.8,3.4,84.7,7.9,109.1,13.4C1001,637,1142.2,621.5,1200,615.3z"/>
	<path class="st5" d="M392.3,627.5c-15,10.7-112.6,11.2-126.9,2.7c-17.1,12.3-63.5,8.6-77,4.8c-7.1,7.5-60.6,11.8-84.1,1.6
		C90.2,647.1,30.8,653,0,643.8L0,623l317.4-4.6C317.4,618.3,407.2,616.8,392.3,627.5z"/>
	<path class="st6" d="M817.6,638.1c0,0-86.2,11.4-192.5,11.4S432.6,638,432.6,638s86.2-11.4,192.5-11.4S817.6,638.1,817.6,638.1z"/>
	<path class="st5" d="M379.1,619.9c-4,0.5-8,1.2-11.8,2c-14.1,3.1-99.3-2.3-185.3-9C105.8,607,28.9,600.2,0,597.5L0,564
		c20.7-21.4,66.5-25.2,75-16.2c4.3-20.1,34.2-19.2,42.1-13.4c-8.6-24.1,14.3-33.5,14.3-33.5s-32-39.3,38.9-46.8
		c-0.7,18.7,6.7,32.8,38.1,35.5c31.4,2.7,38.5,17.6,26.4,38.6c15,0.9,20.7,14.7,14.3,33c38.5,0,44.9,13.4,43.5,25.9
		c36.2-12.4,100.1,5.8,126.8,17.9c7,3.2,11.4,5.9,12.2,7.6C434.6,619.6,406.3,616.4,379.1,619.9z"/>
	<path class="st7" d="M353.8,629.5c-54.2,2.7-87-6.7-87-6.7s-11.4,8.5-33.5,7.1s-27.8-7.2-27.8-7.2s-5.9,13.1-22.1,2.9
		c-22.3,13.1-67,11-81.3-0.3C73.3,641.1,19.2,642.6,0,635.8l0-41.6c37.5-21.6,88.2-17.3,101.4-5.3c10.7-10.3,26-12.1,34.2,4.5
		c32.8-24.1,105.2-16.5,134.6,9.8c19.5-7.1,41.5-2,49.4,8.6c0.5,0.7,1,1.4,1.4,2.1c17.3-3.7,35.4,4.4,49.2,4.9
		c2.8,0.1,6,0.5,8.9,1.1C390.5,622.2,396.9,627.4,353.8,629.5z"/>
	<path class="st5" d="M1200,549.1l0,89.7c-57,16.5-149.8,5.9-154-10.9c-10.7,7.1-34.9,8-40.6,1.3c-29.9,11.2-126.2,1.8-136.2-10.7
		c-25.7,1.8-56.3-6.7-52.1-11.6c19.1-22,53.2-34.8,67.9-16.5c-6.6-27.2,31.9-56.2,61.8-49.5c-21.4-21.4-6.4-47.7,21.4-55.8
		c27.8-8,58.1-27.2,61.5-38.4c14.1,9.8,13.4,46,5.5,57.1c25-9.8,51.3,21.4,51.3,21.4s12.8-9.4,19.3-9.4c6.4,0,8.6,13.8,8.6,13.8
		s15-6.2,34.9-0.9c20,5.4,24.2,35.7,24.2,35.7S1187.7,554.6,1200,549.1z"/>
	<path class="st7" d="M961.9,591.7c13.1,18.6,73.4,15.6,85.6-0.9c4.3,23.6,33.5,24.1,51.3,14.3c9.3,10.7,82,14.7,84.8-1.8
		c2.9-16.5-57.7-13.8-66.3-4.5c-7.1-10.7-27.1-19.6-40.6-7.6c-2.1-44.2-50.6-79.9-83.4-42.4C958.3,548.4,945.5,568.5,961.9,591.7z"
		/>
	<path class="st8" d="M1035.3,503.8c0,0-0.7-24.1-32.8-20.1c-32.1,4-73.4,31.2-38.5,63.8c-77.7,0.4-64.2,57.6-64.2,57.6
		s-7.1-12-33.5-13.8c-26.4-1.8-33.5,28.1,2.8,27.2c-25.7,1.8-56.3-6.7-52.1-11.6c19.1-22,53.2-34.8,67.9-16.5
		c-6.6-27.2,31.9-56.2,61.8-49.5c-21.4-21.4-6.4-47.7,21.4-55.8c27.8-8,58.1-27.2,61.5-38.4C1043.9,456.5,1043.2,492.6,1035.3,503.8
		z"/>
	<path class="st8" d="M249,561.2c0.7-35.1-27.8-27.6-27.8-27.6s27.1-25.2,10-31.6c-17.1-6.4-51.3-7.5-62-23.6
		c-10.7-16.1-29.9-2.7-16.4,11.3c-15,0.5-12.8,14.5,0,23c-22.8-1.6-26.4,6.4-27.1,35.9c-15-8-32.8-9.7-44.9,9.6
		c-14.8-12.6-64.2-8.1-80.7,13l0-7.2c20.7-21.4,66.5-25.2,75-16.2c4.3-20.1,34.2-19.2,42.1-13.4c-8.6-24.1,14.3-33.5,14.3-33.5
		s-32-39.3,38.9-46.8c-0.7,18.7,6.7,32.8,38.1,35.5c31.4,2.7,38.5,17.6,26.4,38.6C249.7,529.1,255.4,542.9,249,561.2z"/>
</g>
</svg>
