<svg xmlns="http://www.w3.org/2000/svg" viewBox="0 0 159.941 160"><defs><style>.cls-2,.cls-3{fill:#24170e}.cls-3{fill-rule:evenodd}.cls-4{fill:none}</style></defs><g id="Layer_2" data-name="Layer 2"><g opacity=".1" id="Layer_8" data-name="Layer 8"><path class="cls-2" d="M49.778 40.865c1.557 0 2.768 1.904 2.768 4.154s-1.211 4.153-2.768 4.153-2.77-1.904-2.77-4.153 1.212-4.154 2.77-4.154zm-19.209 0c1.557 0 2.768 1.904 2.768 4.154s-1.21 4.153-2.768 4.153-2.77-1.904-2.77-4.153 1.212-4.154 2.77-4.154z"/><path class="cls-3" d="M12.571 46.057v3.98c0 5.365 3.461 9.864 8.48 12.806 5.018 3.115 11.594 4.846 19.036 4.846s14.017-1.731 19.035-4.846c4.846-2.942 8.307-7.441 8.307-12.806v-3.98c0-6.403-5.019-11.595-11.768-14.537l1.904-10.556a7.25 7.25 0 10-14.363-1.384v8.999c-1.039 0-2.077-.174-3.115-.174a16.788 16.788 0 00-2.942.174v-9a7.312 7.312 0 00-7.269-7.267 7.484 7.484 0 00-7.268 8.652l1.904 10.556c-6.75 2.942-11.94 8.134-11.94 14.537zm3.394 3.98v-3.76l.005-.199c.09-4.75 4.406-9.21 11.545-11.93l.888-.339-.17-.934-2.249-12.46a4.083 4.083 0 01.934-3.302 3.854 3.854 0 016.832 2.467v12.686l1.259-.126c1.673-.167 3.404-.34 5.078-.34a51.066 51.066 0 015.25.34l1.258.126V19.58a3.878 3.878 0 013.875-3.874 3.855 3.855 0 013.728 4.664l-.003.015-.003.015-2.423 12.46-.184.945.9.343c7.033 2.679 11.284 7.139 11.372 11.93l.004.244v3.715c0 3.69-2.418 7.208-6.809 9.905a33.18 33.18 0 01-17.139 4.352 33.18 33.18 0 01-17.138-4.352c-4.391-2.697-6.81-6.215-6.81-9.905z"/><path class="cls-4" d="M0 0h80v80H0z"/><g id="_0VNaB8" data-name="0VNaB8"><path class="cls-2" d="M98.118 63.49a22.754 22.754 0 009.604 3.267 86.128 86.128 0 0017.59.776c4.83-.308 9.63-.838 14.175-2.63a11.369 11.369 0 006.613-5.832 9.773 9.773 0 00-2.702-11.379c-.468-.397-.963-.763-1.444-1.143 3.562-5.266-.037-13.739-5.975-15.153-.422-.101-.602-.26-.636-.708-.281-3.752-2.342-6.51-5.018-8.924-3.393-3.06-6.919-5.929-11.184-7.72a19.79 19.79 0 00-9.99-1.623 3.607 3.607 0 00-.633.114c-.694.208-1.387.471-1.54 1.282a1.84 1.84 0 00.913 1.883 7.618 7.618 0 012.146 2.263 6.785 6.785 0 01-.098 7.725 14.379 14.379 0 01-4.838 4.335 37.967 37.967 0 00-4.014 2.62 7.928 7.928 0 00-3.23 8.193 9.043 9.043 0 001.167 2.791c.26.45.207.614-.217.885a12.634 12.634 0 00-4.943 5.702c-2.121 4.908-.408 10.19 4.254 13.276zm-2.242-8.902c-.105-4.19 3.963-8.37 8.48-8.85a10.719 10.719 0 002.958-.938 1.527 1.527 0 00.826-1.432 1.44 1.44 0 00-.964-1.242 2.217 2.217 0 00-1.604-.158c-.519.174-1.056.292-1.585.435a4.785 4.785 0 01-1.464.502c-.39.146-.62-.054-.793-.413-1.537-3.187-1.398-6.013 1.919-8.065q.47-.29.949-.569a37.936 37.936 0 005.313-3.493 11.277 11.277 0 004.257-11.042 6.62 6.62 0 00-2.118-3.961 17.196 17.196 0 013.025.582 18.345 18.345 0 016.313 2.773 37.902 37.902 0 019.11 7.89 8.292 8.292 0 011.716 3.712c.14.667-.01 1.032-.75 1.12-.909.11-1.808.299-2.71.453h-.001a9.927 9.927 0 00-1.895.906 1.557 1.557 0 001.319 2.797c1.062-.29 2.112-.628 3.167-.946a6.03 6.03 0 013.618-.245 7.444 7.444 0 015.247 5.655 5.374 5.374 0 01-.662 4.5 1.14 1.14 0 01-1.514.594 5.712 5.712 0 00-1.884-.383c-.215.01-.43.022-.645.028a8.328 8.328 0 00-3.99.933 1.627 1.627 0 00-.833 2.107 1.601 1.601 0 002.057.701 7.793 7.793 0 012.113-.593 8.32 8.32 0 017.221 2.96 6.191 6.191 0 01-.603 9.296c-2.334 1.968-5.171 2.716-8.083 3.269a.939.939 0 01-.242.128 69.272 69.272 0 01-10.879 1.12 71.113 71.113 0 01-13.302-.918 29.654 29.654 0 01-5.729-1.235 8.587 8.587 0 01-3.08-1.145 7.676 7.676 0 01-4.278-6.833z"/><path class="cls-2" d="M119.34 56.277a10.306 10.306 0 005.424-1.582 1.594 1.594 0 00.58-2.43 1.44 1.44 0 00-1.717-.51 18.979 18.979 0 01-3.164 1.236 5.615 5.615 0 01-3.561-.575 8.249 8.249 0 00-1.75-.81 1.527 1.527 0 00-1.359 2.674 8.8 8.8 0 004.007 1.764 7.386 7.386 0 001.54.233zm5.31-14.481a2.454 2.454 0 102.226 2.318 2.197 2.197 0 00-2.226-2.318zm-12.567 2.379a2.292 2.292 0 002.24 2.508 2.269 2.269 0 002.24-2.498 2.13 2.13 0 00-2.11-2.39 2.27 2.27 0 00-2.37 2.38z"/></g><path class="cls-4" d="M79.941 0h80v80h-80z"/><path class="cls-2" d="M129.719 120.865c1.557 0 2.769 1.904 2.769 4.153s-1.212 4.154-2.77 4.154-2.768-1.904-2.768-4.154 1.211-4.153 2.769-4.153zm-19.209 0c1.557 0 2.769 1.904 2.769 4.153s-1.212 4.154-2.769 4.154-2.769-1.904-2.769-4.154 1.211-4.153 2.769-4.153z"/><path class="cls-3" d="M92.512 126.057v3.98c0 5.365 3.461 9.864 8.48 12.806 5.019 3.115 11.595 4.845 19.036 4.845s14.017-1.73 19.036-4.845c4.845-2.942 8.306-7.441 8.306-12.806v-3.98c0-6.403-5.018-11.595-11.767-14.537l1.903-10.556a7.25 7.25 0 10-14.363-1.384v8.998c-1.039 0-2.077-.173-3.115-.173a16.787 16.787 0 00-2.942.173V99.58a7.312 7.312 0 00-7.268-7.268 7.484 7.484 0 00-7.268 8.652l1.903 10.556c-6.749 2.942-11.94 8.134-11.94 14.537zm3.395 3.98v-3.76l.004-.199c.09-4.75 4.406-9.21 11.545-11.93l.888-.339-.169-.935-2.25-12.46a4.083 4.083 0 01.935-3.301 3.854 3.854 0 016.832 2.467v12.686l1.258-.126c1.674-.167 3.404-.34 5.078-.34a51.066 51.066 0 015.25.34l1.259.126V99.58a3.878 3.878 0 013.874-3.874 3.855 3.855 0 013.728 4.664l-.003.015-.003.015-2.423 12.46-.184.945.9.342c7.033 2.68 11.285 7.14 11.372 11.93l.005.245v3.715c0 3.69-2.418 7.208-6.81 9.905a33.18 33.18 0 01-17.138 4.352 33.18 33.18 0 01-17.14-4.352c-4.39-2.697-6.808-6.215-6.808-9.905z"/><path class="cls-4" d="M79.941 80h80v80h-80z"/><g id="_0VNaB8-2" data-name="0VNaB8"><path class="cls-2" d="M66.077 130.214a12.634 12.634 0 00-4.942-5.702c-.424-.27-.477-.435-.218-.885a9.043 9.043 0 001.167-2.79 7.928 7.928 0 00-3.23-8.193 37.968 37.968 0 00-4.014-2.621 14.379 14.379 0 01-4.838-4.335 6.785 6.785 0 01-.098-7.725A7.618 7.618 0 0152.05 95.7a1.84 1.84 0 00.913-1.883c-.153-.81-.846-1.074-1.54-1.282a3.609 3.609 0 00-.633-.114 19.79 19.79 0 00-9.99 1.622c-4.265 1.792-7.79 4.66-11.183 7.72-2.676 2.415-4.737 5.173-5.019 8.925-.033.449-.213.607-.635.708-5.938 1.414-9.537 9.887-5.975 15.153-.482.38-.976.746-1.444 1.144a9.773 9.773 0 00-2.703 11.378 11.369 11.369 0 006.613 5.832c4.546 1.792 9.346 2.322 14.175 2.63a86.127 86.127 0 0017.59-.776 22.754 22.754 0 009.605-3.267c4.662-3.086 6.374-8.368 4.253-13.276zm-6.289 11.207a8.587 8.587 0 01-3.081 1.145 29.654 29.654 0 01-5.73 1.235 71.113 71.113 0 01-13.301.918 69.273 69.273 0 01-10.879-1.12.94.94 0 01-.241-.128c-2.912-.553-5.75-1.3-8.084-3.269a6.191 6.191 0 01-.603-9.295 8.32 8.32 0 017.22-2.961 7.793 7.793 0 012.114.593 1.601 1.601 0 002.057-.701 1.627 1.627 0 00-.832-2.107 8.327 8.327 0 00-3.991-.933c-.215-.006-.43-.019-.645-.028a5.713 5.713 0 00-1.883.383 1.14 1.14 0 01-1.514-.594 5.374 5.374 0 01-.662-4.5 7.444 7.444 0 015.246-5.655 6.03 6.03 0 013.618.245c1.056.318 2.105.655 3.168.946a1.557 1.557 0 001.319-2.797 9.927 9.927 0 00-1.896-.906c-.903-.154-1.802-.344-2.71-.453-.74-.088-.891-.453-.751-1.12a8.292 8.292 0 011.717-3.711 37.901 37.901 0 019.11-7.89 18.345 18.345 0 016.312-2.774 17.195 17.195 0 013.025-.582 6.62 6.62 0 00-2.118 3.96 11.277 11.277 0 004.257 11.043 37.936 37.936 0 005.313 3.493q.479.279.95.57c3.316 2.05 3.455 4.877 1.919 8.064-.173.36-.404.559-.794.413a4.785 4.785 0 01-1.464-.502c-.529-.143-1.066-.261-1.585-.435a2.217 2.217 0 00-1.604.158 1.44 1.44 0 00-.964 1.242 1.527 1.527 0 00.827 1.433 10.719 10.719 0 002.958.936c4.516.48 8.584 4.662 8.48 8.85a7.676 7.676 0 01-4.278 6.834z"/><path class="cls-2" d="M40.601 136.277a10.307 10.307 0 01-5.423-1.582 1.594 1.594 0 01-.58-2.43 1.44 1.44 0 011.717-.51 18.98 18.98 0 003.163 1.236 5.615 5.615 0 003.562-.575 8.248 8.248 0 011.749-.81 1.527 1.527 0 011.36 2.674 8.8 8.8 0 01-4.007 1.765 7.388 7.388 0 01-1.54.232zm-5.31-14.48a2.454 2.454 0 11-2.225 2.317 2.197 2.197 0 012.225-2.317zm12.567 2.378a2.292 2.292 0 01-2.24 2.508 2.269 2.269 0 01-2.24-2.498 2.13 2.13 0 012.11-2.39 2.27 2.27 0 012.37 2.38z"/></g><path class="cls-4" d="M0 80h80v80H0z"/></g></g></svg>