<svg xmlns="http://www.w3.org/2000/svg" viewBox="0 0 410.218 527.788"><defs><style>.cls-1{fill:#ae724a}.cls-2{fill:#945d3c}.cls-4{fill:#fff}.cls-5{fill:#24170e}</style></defs><g id="Layer_2" data-name="Layer 2"><g id="Layer_6" data-name="Layer 6"><path class="cls-1" d="M388.898 237.674a106.666 106.666 0 015.395 45.204 86.26 86.26 0 01-15.774 41.721 95.222 95.222 0 01-15.33 16.593c-2.765 2.63-6.043 4.678-9.047 7.034-3.244 2.082-6.453 4.2-9.799 6.111a190.995 190.995 0 01-43.736 17.242 312.423 312.423 0 01-47.218 8.603c-16.012 2.015-32.23 2.63-48.447 3.278-32.4-.956-64.938-3.278-95.734-11.642a188.366 188.366 0 01-43.804-17.208c-3.38-1.912-6.59-4.029-9.833-6.111-3.039-2.39-6.316-4.439-9.082-7.068a90.97 90.97 0 01-15.398-16.627 87.09 87.09 0 01-15.842-41.892 107.27 107.27 0 015.463-45.34 58.092 58.092 0 014.61-10.243 40.328 40.328 0 012.799-4.677l3.312-4.405a61.5 61.5 0 0117.378-13.656c6.623-3.654 13.998-5.839 21.475-8.126 7.511-2.322 15.193-4.439 23.456-7.375a45.239 45.239 0 00-14.408-3.38c.034-.546.068-1.058.136-1.57.171-2.117.444-4.268.82-6.385.273-2.117.922-4.165 1.331-6.282.547-2.083 1.264-4.097 1.878-6.146a60.172 60.172 0 0112.906-21.44 22.726 22.726 0 012.15-2.288l2.39-2.015a30.116 30.116 0 014.951-3.858l5.292-3.345c1.912-.922 3.892-1.742 5.804-2.63l2.902-1.331c1.025-.341 2.049-.615 3.107-.922l6.18-1.81c4.234-.955 8.604-1.433 12.906-2.219l6.487-1.16-.376-6.18a105.354 105.354 0 01.751-18.13 93.047 93.047 0 013.995-17.753c3.755-11.404 10.31-21.578 19.665-28.03a47.726 47.726 0 0115.535-7.136 159.841 159.841 0 0019.427-6.453 97.7 97.7 0 0018.539-9.833 63.116 63.116 0 0014.954-14.032c.512 1.331.99 2.697 1.434 4.028a56.997 56.997 0 012.902 17.174 37.196 37.196 0 01-.854 8.296 12.878 12.878 0 01-.478 1.98l-.273.99-.375 1.571a24.064 24.064 0 00-.683 6.828 27.007 27.007 0 003.824 12.292 53.782 53.782 0 006.862 9.047c9.97 10.311 21.066 17.48 30.83 25.572a81.643 81.643 0 0112.872 12.496c2.97 3.893 4.575 7.648 4.438 11.13a2.144 2.144 0 01-.375.41 32.481 32.481 0 01-2.185 2.151c-1.502 1.434-3.21 2.732-4.848 4.029a75.496 75.496 0 01-10.857 6.828 89.406 89.406 0 01-24.787 8.263c-4.405.444-8.81 1.263-13.316 1.16-2.219-.034-4.472.205-6.726 0l-6.76-.477a49.764 49.764 0 01-6.726-.922l-6.76-1.127c-4.438-1.058-8.809-2.322-13.281-3.482 4.268 1.707 8.501 3.516 12.837 5.12l6.658 2.015a57.204 57.204 0 006.726 1.741l6.862 1.4c2.322.478 4.678.547 7 .854 4.677.649 9.423.444 14.168.512a97.513 97.513 0 0028.202-5.702 85.5 85.5 0 0013.315-6.18c2.117-1.297 4.268-2.56 6.282-4.062a37.388 37.388 0 002.322-1.742c11.608 4.985 47.662 22.91 42.267 51.35a78.546 78.546 0 00-10.037-1.57c-8.604-.581-17.242-.137-25.402 2.355 16.388 3.824 31.718 8.194 44.862 15.671a64.555 64.555 0 0117.242 13.691l3.278 4.336a40.326 40.326 0 012.8 4.678 57.652 57.652 0 014.574 10.208zm-70.195 90.032c18.163-22.943 24.275-51.964 17.275-81.633-16.968-71.732-123.832-69.854-131.036-69.65-7.238-.204-114.068-2.082-131.037 69.65-6.999 29.67-.888 58.69 17.276 81.633 23.865 30.182 65.348 47.458 113.76 47.458s89.896-17.276 113.762-47.458z"/><path class="cls-2" d="M395.13 235.928s4.422 57.105-24.111 65.864c-28.533 8.76-3.427-69.695-59.34-94.994 0 0 83.803 146.093-106.737 160.073-190.54-13.98-106.736-160.073-106.736-160.073-55.914 25.3-30.807 103.754-59.34 94.994-28.533-8.76-24.111-65.864-24.111-65.864-49.72 160.588 182.873 153.186 190.187 152.914 7.315.272 239.909 7.674 190.188-152.914z"/><path d="M79.334 185.71s13.671-55.622 79.028-56.11c0 0-10.73-65.357 31.704-79.99s50.998-34.848 50.998-34.848l-24.173 11.925-61.455 28.289-9.755 34.142-3.287 26.338-22.563 8.291-35.144 19.51-10.704 35.605z" fill="#d18d66"/><path class="cls-2" d="M204.942 142.999s36.946 38.61 95.269 14.406c16.091-6.678 35.193-2.23 45.003 12.169a36.787 36.787 0 016.367 18.73s27.24-23.099-43.97-57.728c0 0-32.19 35.088-102.67 12.423z"/><ellipse class="cls-4" cx="189.508" cy="81.76" rx="26.582" ry="11.218" transform="rotate(-65.914 189.508 81.76)"/><circle class="cls-4" cx="172.841" cy="119.045" r="8.501" transform="rotate(-39.59 172.841 119.045)"/><path class="cls-1" d="M365.678 397.46a31.268 31.268 0 011.297 17.48c-1.81 8.843-7.135 16.116-15.876 21.578-27.347 17.14-40.117 11.643-50.325 1.673a50.738 50.738 0 01-6.18-14.988 23.952 23.952 0 01-.648-4.063l-.137-2.083-.102-1.024-.034-1.297a213.229 213.229 0 00-.444-10.345 98.973 98.973 0 00-1.23-10.652 69.683 69.683 0 00-.682-3.244c1.434-.273 2.868-.58 4.336-.922 6.828 5.702 19.631 17.276 23.728 25.163l3.858 7.409 6.521-5.258c13.726-11.062 30.387-19.905 35.918-19.427zm-247.631-7.306a52.537 52.537 0 00-.786 3.585 98.976 98.976 0 00-1.229 10.652c-.239 3.482-.375 6.93-.444 10.345l-.034 1.297-.102 1.024-.137 2.083a23.952 23.952 0 01-.648 4.063 50.738 50.738 0 01-6.18 14.988c-10.209 9.97-22.978 15.467-50.325-1.673-8.74-5.462-14.067-12.735-15.876-21.577a31.673 31.673 0 011.263-17.481c5.668-.41 22.226 8.365 35.986 19.427l6.487 5.258 3.823-7.41c4.2-8.057 17.515-19.972 24.207-25.503 1.332.307 2.663.649 3.995.922zm79.994 103.04a22.362 22.362 0 01-.853 5.053 15.608 15.608 0 01-3.005 6.282c-2.731 3.517-7.477 5.907-12.974 7.033a56.654 56.654 0 01-17.583.751 99.741 99.741 0 01-18.061-3.448 91.733 91.733 0 01-17.071-6.794c-5.292-2.834-10.345-6.146-13.964-9.97a19.418 19.418 0 01-4.029-5.735 8.68 8.68 0 01-.444-1.332 5.957 5.957 0 01-.341-1.707 26.653 26.653 0 01-.478-3.96 32.037 32.037 0 013.243-15.433c2.356-5.258 5.941-10.686 9.424-16.797 3.414-6.146 6.623-13.248 8.023-20.964a41.951 41.951 0 00.717-5.838l.102-2.902.035-1.468v-1.23c-.069-3.208-.103-6.452 0-9.593.068-3.175.273-6.316.58-9.252.137-1.195.341-2.288.546-3.346a404.043 404.043 0 0023.046 2.8c16.661 1.74 33.357 1.877 49.984 1.775 16.627.17 33.288.102 49.984-1.537q11.266-1.024 22.499-2.663a24.568 24.568 0 01.478 2.97c.307 2.937.512 6.078.58 9.253.103 3.141.069 6.385 0 9.594v1.229l.035 1.468.102 2.902a41.95 41.95 0 00.717 5.838c1.4 7.716 4.61 14.818 8.023 20.964 3.483 6.11 7.034 11.54 9.424 16.797a32.037 32.037 0 013.243 15.432 26.653 26.653 0 01-.478 3.96 5.957 5.957 0 01-.341 1.708 6.324 6.324 0 01-.478 1.332 18.644 18.644 0 01-3.995 5.735c-3.653 3.824-8.672 7.136-13.964 9.97a91.733 91.733 0 01-17.071 6.794 100.305 100.305 0 01-18.061 3.448 56.654 56.654 0 01-17.583-.75c-5.497-1.127-10.243-3.517-12.974-7.034a15.175 15.175 0 01-3.005-6.282 22.362 22.362 0 01-.853-5.053c0-.512-.034-1.024-.068-1.536.034-.41 0-.786.034-1.161a18.712 18.712 0 016.623-13.042 42.275 42.275 0 0115.671-7.819 66.779 66.779 0 0118.71-2.287 49.301 49.301 0 0119.12 3.755c-5.053-4.575-11.711-7.272-18.437-8.877a61.99 61.99 0 00-21.031-1.195c-7.102.922-14.408 2.936-20.895 7.477a32.63 32.63 0 00-6.316 5.804 32.63 32.63 0 00-6.317-5.804c-6.487-4.54-13.793-6.555-20.895-7.477a61.99 61.99 0 00-21.031 1.195c-6.726 1.605-13.384 4.302-18.437 8.877a49.135 49.135 0 0119.086-3.755 66.865 66.865 0 0118.744 2.287 42.275 42.275 0 0115.67 7.819 18.712 18.712 0 016.624 13.042c.034.375 0 .75 0 1.16 0 .513-.034 1.025-.034 1.537z"/><path class="cls-2" d="M182.817 472.167c11.832 8.271 1.338 25.382-38.657 19.53s-30.727-37.069-30.727-37.069-12.682 26.338-8.292 42.921c4.39 16.584 68.772 24.875 68.772 24.875l27.313-13.657s4.39-18.046 0-29.752-18.409-6.848-18.409-6.848zm-58.649-53.595l-.005-23.936s.488-10.73-8.292-11.176c-8.78-.446-18.534 16.053-18.534 16.053 7.316-3.902 9.755 10.243 6.88 19.059-2.874 8.816-6.392 18.497-34.204 8.743C42.2 417.56 43.549 397.46 43.549 397.46c-12.33 7.214-4.253 25.953-4.253 25.953 9.97 26.14 49.75 31.215 49.75 31.215l20.144-7.058zm141.889 73.125c-39.994 5.852-50.488-11.258-38.657-19.53 0 0-14.019-4.858-18.408 6.848s0 29.752 0 29.752l27.313 13.657s64.382-8.291 68.772-24.875c4.39-16.583-8.292-42.92-8.292-42.92s9.267 31.215-30.728 37.068zm100.612-94.237s1.348 20.1-26.464 29.855c-27.812 9.754-31.33.073-34.204-8.743-2.875-8.816-.437-22.96 6.88-19.059 0 0-9.755-16.499-18.535-16.053-8.779.446-8.291 11.176-8.291 11.176l-.005 23.936 14.978 28.998 20.144 7.058s39.78-5.074 49.75-31.215c0 0 8.077-18.74-4.253-25.953zm-85.901-13.998l-75.66 9.082-75.658-9.082-.273 12.637s20.798 12.681 75.932 12.681 75.932-12.68 75.932-12.68z"/><path class="cls-5" d="M129.211 392.27c.102-.034.137-.034.239-.068-.102-.034-.17-.034-.273-.068zm104.27 77.366a42.275 42.275 0 00-15.672 7.819 18.712 18.712 0 00-6.623 13.042c-.034.375 0 .75-.034 1.16.034.513.068 1.025.068 1.537a22.362 22.362 0 00.853 5.053 15.175 15.175 0 003.005 6.282c2.731 3.517 7.477 5.907 12.974 7.033a56.654 56.654 0 0017.583.751 100.305 100.305 0 0018.061-3.448 91.733 91.733 0 0017.071-6.794c5.292-2.834 10.31-6.146 13.964-9.97a18.644 18.644 0 003.995-5.735 6.324 6.324 0 00.478-1.332 5.957 5.957 0 00.341-1.707 26.653 26.653 0 00.478-3.96 32.037 32.037 0 00-3.243-15.433c-2.39-5.258-5.941-10.686-9.424-16.798-3.414-6.145-6.623-13.247-8.023-20.963a41.95 41.95 0 01-.717-5.838l-.102-2.902-.035-1.468v-1.23c.069-3.209.103-6.452 0-9.593a113.024 113.024 0 00-.58-9.252 24.568 24.568 0 00-.478-2.97q-11.216 1.638-22.5 2.662c-16.695 1.639-33.356 1.707-49.983 1.537-16.627.102-33.323-.035-49.984-1.776a404.061 404.061 0 01-23.046-2.8c-.205 1.059-.41 2.152-.546 3.347a113.024 113.024 0 00-.58 9.252c-.103 3.141-.069 6.384 0 9.594v1.229l-.035 1.468-.102 2.902a41.951 41.951 0 01-.717 5.838c-1.4 7.716-4.61 14.818-8.023 20.963-3.483 6.112-7.068 11.54-9.424 16.798a32.037 32.037 0 00-3.243 15.432 26.653 26.653 0 00.478 3.96 5.957 5.957 0 00.341 1.708 8.68 8.68 0 00.444 1.332 19.418 19.418 0 004.029 5.735c3.619 3.824 8.672 7.136 13.964 9.97a91.733 91.733 0 0017.07 6.794 99.741 99.741 0 0018.062 3.448 56.654 56.654 0 0017.583-.75c5.497-1.127 10.243-3.517 12.974-7.034a15.608 15.608 0 003.005-6.282 22.362 22.362 0 00.853-5.053c0-.512.034-1.024.034-1.536 0-.41.034-.786 0-1.161a18.712 18.712 0 00-6.623-13.042 42.275 42.275 0 00-15.671-7.819 66.865 66.865 0 00-18.744-2.287 49.135 49.135 0 00-19.086 3.755c5.053-4.575 11.711-7.272 18.437-8.877a61.99 61.99 0 0121.031-1.195c7.102.922 14.408 2.936 20.895 7.477a32.63 32.63 0 016.316 5.804 32.63 32.63 0 016.317-5.804c6.487-4.54 13.793-6.555 20.895-7.477a61.99 61.99 0 0121.031 1.195c6.726 1.605 13.384 4.302 18.437 8.877a49.301 49.301 0 00-19.12-3.755 66.779 66.779 0 00-18.71 2.287zm-8.502-322.026a48.985 48.985 0 006.726.887l6.76.512c2.22.205 4.507-.034 6.726-.034 4.473.103 8.911-.683 13.315-1.16a86.652 86.652 0 0024.753-8.263 73.822 73.822 0 0010.892-6.794 61.713 61.713 0 004.814-4.063c.785-.683 1.536-1.4 2.219-2.117.136-.136.239-.273.375-.41.137-3.482-1.468-7.272-4.438-11.13a81.795 81.795 0 00-12.872-12.53c-9.764-8.091-20.86-15.227-30.83-25.572a50.767 50.767 0 01-6.862-9.048 26.876 26.876 0 01-3.824-12.29 23.704 23.704 0 01.683-6.795l.375-1.57.273-.99c.171-.684.376-1.332.478-2.015a39.088 39.088 0 00.854-8.297 56.781 56.781 0 00-2.902-17.139 80.42 80.42 0 00-1.434-4.029 63.804 63.804 0 01-14.988 13.999 97.6 97.6 0 01-18.505 9.867 161.592 161.592 0 01-19.427 6.418 49.186 49.186 0 00-15.535 7.136c-9.355 6.453-15.91 16.661-19.665 28.03a93.635 93.635 0 00-3.995 17.754 105.492 105.492 0 00-.751 18.13l.375 6.18-6.487 1.16c-4.301.785-8.672 1.263-12.905 2.22l-6.214 1.843c-1.024.307-2.049.58-3.073.922l-2.902 1.297c-1.946.888-3.892 1.707-5.804 2.63l-5.326 3.38a33.291 33.291 0 00-4.917 3.823l-2.39 2.014a27.096 27.096 0 00-2.15 2.288 59.536 59.536 0 00-12.906 21.475c-.615 2.049-1.332 4.063-1.878 6.112-.41 2.116-1.058 4.165-1.331 6.316q-.564 3.175-.82 6.35c-.068.512-.102 1.059-.136 1.57a45.293 45.293 0 0114.408 3.415c-8.297 2.902-15.945 5.053-23.456 7.34-7.477 2.322-14.886 4.473-21.51 8.16a62.473 62.473 0 00-17.378 13.657l-3.277 4.37a34.266 34.266 0 00-2.8 4.712 57.753 57.753 0 00-4.609 10.208 106.887 106.887 0 00-5.463 45.375 86.967 86.967 0 0015.842 41.858 91.165 91.165 0 0015.398 16.661c2.732 2.63 6.043 4.678 9.048 7.033 3.243 2.083 6.487 4.2 9.867 6.112 13.554 7.614 28.44 13.145 43.804 17.207 30.796 8.365 63.333 10.721 95.734 11.677 16.217-.649 32.435-1.263 48.413-3.312a316.322 316.322 0 0047.252-8.57 190.82 190.82 0 0043.702-17.275c3.38-1.878 6.59-4.029 9.833-6.112 3.004-2.355 6.282-4.404 9.047-7.033a92.84 92.84 0 0015.33-16.593 86.138 86.138 0 0015.774-41.687 106.758 106.758 0 00-5.395-45.238 58.688 58.688 0 00-4.575-10.174 40.328 40.328 0 00-2.8-4.678l-3.277-4.37A65.671 65.671 0 00361 204.763c-13.144-7.477-28.474-11.881-44.862-15.67 8.16-2.493 16.798-2.971 25.402-2.357a73.426 73.426 0 0110.071 1.57c2.561-13.212-3.346-25.606-17.651-36.975a111.972 111.972 0 00-24.65-14.408 37.99 37.99 0 01-2.322 1.776c-2.014 1.502-4.165 2.731-6.282 4.028a85.68 85.68 0 01-13.316 6.214 96.338 96.338 0 01-28.2 5.668c-4.78-.069-9.492.17-14.17-.512-2.355-.308-4.711-.342-6.999-.854l-6.862-1.366a51.342 51.342 0 01-6.726-1.775l-6.658-2.014c-4.336-1.57-8.604-3.415-12.837-5.087 4.438 1.16 8.842 2.424 13.28 3.448zm177.401 85.013a117.982 117.982 0 017.443 51.725 102.281 102.281 0 01-17.958 49.71 104.158 104.158 0 01-17.89 19.632c-3.21 3.039-6.897 5.429-10.38 8.126-3.653 2.39-7.272 4.814-11.062 6.965a188.243 188.243 0 01-40.8 16.695 131.751 131.751 0 0115.399 16.218c11.779-8.672 33.356-22.26 45.716-16.218 5.94 2.936 8.057 14.237 8.364 20.485.512 10.038-1.74 28.884-22.875 42.131-15.056 9.458-27.245 13.111-37.317 13.111a37.263 37.263 0 01-7.989-.82 46.067 46.067 0 013.414 19.905 50.12 50.12 0 01-.751 5.975 25.075 25.075 0 01-1.878 6.521 34.78 34.78 0 01-7.272 10.618c-5.6 5.839-11.95 9.765-18.437 13.043a110.267 110.267 0 01-41.345 11.164 71.083 71.083 0 01-22.124-1.775 41.805 41.805 0 01-11.097-4.405 29.928 29.928 0 01-8.91-7.613 30.354 30.354 0 01-8.912 7.613 42.264 42.264 0 01-11.096 4.405 71.083 71.083 0 01-22.124 1.775 110.267 110.267 0 01-41.346-11.164c-6.487-3.278-12.871-7.204-18.436-13.043a34.78 34.78 0 01-7.272-10.618 25.075 25.075 0 01-1.878-6.52 50.122 50.122 0 01-.751-5.976 46.067 46.067 0 013.414-19.904 37.586 37.586 0 01-8.023.819c-10.038 0-22.227-3.653-37.283-13.11-21.134-13.248-23.422-32.094-22.876-42.132.308-6.248 2.425-17.549 8.365-20.485 12.36-6.043 33.937 7.511 45.716 16.218a130.436 130.436 0 0115.774-16.56 190.296 190.296 0 01-40.424-16.626c-3.756-2.151-7.409-4.541-11.028-6.931-3.483-2.697-7.136-5.087-10.345-8.126a107.23 107.23 0 01-17.856-19.597 100.956 100.956 0 01-17.856-49.54 117.389 117.389 0 017.34-51.589 70.06 70.06 0 015.873-12.052 48.183 48.183 0 013.687-5.736l4.268-5.36a75.207 75.207 0 0121.577-16.047 77.871 77.871 0 0122.5-7.306c.034-1.092.102-2.15.205-3.243a80.01 80.01 0 01.99-7.546c.307-2.492 1.058-4.916 1.57-7.409.649-2.424 1.468-4.848 2.22-7.272a73.126 73.126 0 0115.807-26.22c.888-.923 1.673-1.981 2.63-2.8l2.97-2.527a43.084 43.084 0 016.11-4.746l6.522-4.13c2.287-1.127 4.643-2.118 6.965-3.176l3.482-1.536c1.195-.41 2.425-.752 3.62-1.127l7.272-2.117c2.8-.614 5.599-1.092 8.433-1.536a129.568 129.568 0 01.956-14.579A106.866 106.866 0 01140 75.843c4.37-13.28 12.496-26.357 24.753-34.824a61.8 61.8 0 0119.87-9.15 141.766 141.766 0 0017.72-5.873c11.301-4.643 21.953-11.233 28.44-20.212l.307-.41.82-1.058a12.894 12.894 0 011.98-1.878 12.389 12.389 0 014.95-2.185 12.622 12.622 0 0110.107 2.288 12.838 12.838 0 013.482 4.063l.546 1.16.24.615.512 1.229c.614 1.639 1.229 3.312 1.775 5.019a71.076 71.076 0 013.55 21.304 51.902 51.902 0 01-1.16 11.165 24.446 24.446 0 01-.649 2.731l-.375 1.4-.171.785a8.51 8.51 0 00-.307 2.902c.034 3.824 3.072 8.468 6.999 12.701 8.194 8.536 19.12 15.842 29.498 24.343a94.534 94.534 0 0115.091 14.784 37.048 37.048 0 015.77 10.447 26.15 26.15 0 011.4 7.375 125.684 125.684 0 0127.313 16.08c19.086 15.16 26.631 32.982 22.227 51.828.683.307 1.434.546 2.117.888a71.91 71.91 0 0121.714 16.046l4.302 5.36a48.587 48.587 0 013.687 5.77 71.6 71.6 0 015.872 12.087zM366.975 414.94a31.268 31.268 0 00-1.297-17.481c-5.531-.478-22.192 8.365-35.917 19.427l-6.522 5.258-3.858-7.41c-4.097-7.886-16.9-19.46-23.728-25.162-1.468.342-2.902.649-4.336.922a69.39 69.39 0 01.683 3.244 98.973 98.973 0 011.229 10.652c.239 3.482.375 6.93.444 10.345l.034 1.297.102 1.024.137 2.083a23.952 23.952 0 00.648 4.063 50.738 50.738 0 006.18 14.988c10.209 9.97 22.978 15.467 50.325-1.673 8.74-5.462 14.067-12.735 15.876-21.577zm-249.714-21.202a52.18 52.18 0 01.786-3.585c-1.332-.273-2.663-.615-3.995-.922-6.692 5.53-20.007 17.446-24.207 25.504l-3.823 7.409-6.487-5.258c-13.76-11.062-30.318-19.837-35.986-19.427a31.673 31.673 0 00-1.263 17.48c1.81 8.843 7.135 16.116 15.876 21.578 27.347 17.14 40.116 11.643 50.325 1.673a50.738 50.738 0 006.18-14.988 23.952 23.952 0 00.648-4.063l.137-2.082.102-1.025.034-1.297c.069-3.414.205-6.863.444-10.345a98.976 98.976 0 011.23-10.652z"/><path d="M117.613 134.125c-4.406-22.908 13.216-44.053 36.123-44.053a37.228 37.228 0 0137.005 37.004v45.816c5.286 0 10.573-.881 15.86-.881a85.48 85.48 0 0114.977.88v-45.815a37.228 37.228 0 0137.005-37.004c22.908 0 40.529 21.145 37.005 44.053l-9.692 53.745c34.362 14.978 60.793 41.41 60.793 74.01v20.264c0 27.313-17.62 50.22-43.172 65.199-25.55 15.859-59.031 24.67-96.917 24.67s-71.366-8.811-96.917-24.67c-24.67-14.978-42.291-37.886-42.291-65.2V261.88c0-32.6 25.55-59.031 59.912-74.01z" fill-rule="evenodd" fill="#24170e"/><path d="M335.236 282.144c0 43.172-57.27 78.415-127.755 78.415S79.727 325.316 79.727 282.144v-20.265h255.509v20.265z" fill="#f8db99"/><path d="M129.066 132.363a25.404 25.404 0 1150.221-5.287v58.15a266.825 266.825 0 0127.313-1.761c8.81 0 17.621.88 26.432 1.762v-58.15a25.57 25.57 0 0125.551-25.551c15.86 0 28.194 14.978 25.55 30.837l-11.453 63.436c37.005 14.097 62.556 38.767 62.556 66.961 0 43.173-57.27 78.415-127.755 78.415S79.727 305.933 79.727 262.76c0-28.194 24.67-52.863 61.674-66.96z" fill="#c68959" fill-rule="evenodd"/><path class="cls-5" d="M244.455 301.773h-79.049a9.159 9.159 0 00-8.216 13.303c5.986 11.378 19.218 25.927 47.74 25.927s41.754-14.549 47.74-25.927a9.159 9.159 0 00-8.215-13.303z"/><path d="M204.93 317.89s-11.484-.274-21.138 3.241a3.885 3.885 0 00-.674 6.97c4.208 2.598 11.232 5.444 21.812 5.444s17.605-2.846 21.813-5.444a3.885 3.885 0 00-.674-6.97c-9.654-3.515-21.139-3.242-21.139-3.242z" fill="#9e3149"/><path class="cls-5" d="M150.697 265.165c-14.59 0-26.02-8.249-26.02-18.778a5.121 5.121 0 0110.243 0c0 4.028 6.747 8.535 15.777 8.535s15.778-4.507 15.778-8.535a5.121 5.121 0 0110.242 0c0 10.53-11.43 18.778-26.02 18.778zm107.864 0c-14.59 0-26.02-8.249-26.02-18.778a5.121 5.121 0 0110.243 0c0 4.028 6.747 8.535 15.777 8.535s15.78-4.507 15.78-8.535a5.121 5.121 0 0110.242 0c0 10.53-11.43 18.778-26.022 18.778z"/></g></g></svg>