<svg xmlns="http://www.w3.org/2000/svg" viewBox="0 0 750.761 849.036"><defs><style>.cls-1{fill:#fff}.cls-2{fill:#ae724a}.cls-3{fill:#24170e}.cls-4{fill:#945d3c}</style></defs><g id="Layer_2" data-name="Layer 2"><g id="base"><path class="cls-1" d="M224.626 220.596a10.055 10.055 0 01-1.869-.173l-69.38-12.853a107.335 107.335 0 01-44.727 9.727 108.589 108.589 0 11104.606-79.234l21.182 69.271a10.261 10.261 0 01-9.812 13.262z"/><path class="cls-2" d="M317.256 580.408s-70.743 93.531-50.569 134.116c20.174 40.586 41.041 1.466 41.041 1.466l32.116-37.94 1.17-90.213z"/><path class="cls-3" d="M282.196 741.754a21.16 21.16 0 01-3.087-.223c-5.53-.82-13.35-3.996-19.215-14.472-12.051-21.525-9.286-61.46 6.881-99.376 23.366-54.785 57.544-58.806 58.989-58.951l2.039 20.42-1.02-10.21 1.228 10.185c-.977.14-24.15 3.908-42.359 46.607-14.99 35.147-15.232 68.12-7.853 81.303.81 1.448 2.448 3.918 4.316 4.193 6.859 1.04 27.166-18.892 41.795-40.955l17.104 11.337c-8.016 12.091-35.147 50.139-58.818 50.142z"/><path class="cls-2" d="M567.86 580.408s70.742 93.531 50.568 134.116c-20.174 40.586-41.041 1.466-41.041 1.466l-32.116-37.94-1.17-90.213z"/><path class="cls-3" d="M602.92 741.754a21.161 21.161 0 003.086-.223c5.53-.82 13.351-3.996 19.215-14.472 12.051-21.525 9.286-61.46-6.881-99.376-23.366-54.785-57.544-58.806-58.989-58.951l-2.039 20.42 1.02-10.21-1.228 10.185c.977.14 24.15 3.908 42.359 46.607 14.99 35.147 15.232 68.12 7.853 81.303-.81 1.448-2.448 3.918-4.316 4.193-6.859 1.04-27.166-18.892-41.795-40.955L544.1 691.612c8.016 12.091 35.147 50.139 58.819 50.142z"/><ellipse class="cls-3" cx="442.558" cy="835.295" rx="135.765" ry="13.741"/><path class="cls-2" d="M718.702 360.267a160.275 160.275 0 018.106 67.923 129.613 129.613 0 01-23.701 62.69c-6.772 8.978-14.16 17.648-23.034 24.932-4.156 3.95-9.08 7.029-13.595 10.568-4.874 3.13-9.696 6.31-14.724 9.183-20.366 11.338-42.631 19.751-65.717 25.908-23.085 6.258-46.94 10.26-70.95 12.927-24.06 3.027-48.428 3.95-72.796 4.925-48.685-1.436-97.575-4.925-143.849-17.493-23.086-6.105-45.453-14.467-65.82-25.856-5.078-2.873-9.9-6.054-14.774-9.183-4.566-3.591-9.491-6.67-13.646-10.62a136.692 136.692 0 01-23.137-24.983 130.86 130.86 0 01-23.804-62.947 161.182 161.182 0 018.208-68.128c2-5.335 4.053-10.773 6.926-15.39 1.436-2.31 2.462-4.925 4.206-7.029l4.977-6.618a92.408 92.408 0 0126.112-20.52c9.952-5.49 21.034-8.773 32.269-12.21 11.286-3.488 22.829-6.67 35.244-11.081a67.975 67.975 0 00-21.65-5.079c.052-.82.103-1.59.206-2.36.256-3.18.667-6.412 1.23-9.593.411-3.18 1.386-6.259 2.002-9.44.82-3.129 1.898-6.156 2.821-9.234a90.414 90.414 0 0119.392-32.217 34.147 34.147 0 013.232-3.437l3.591-3.027c2.411-2 4.617-4.31 7.439-5.797l7.952-5.027c2.872-1.386 5.848-2.617 8.72-3.95l4.361-2.001c1.54-.513 3.078-.924 4.669-1.385l9.285-2.72c6.362-1.436 12.928-2.154 19.392-3.334l9.748-1.744-.565-9.286a158.304 158.304 0 011.129-27.24 139.81 139.81 0 016.002-26.678c5.643-17.134 15.493-32.422 29.55-42.118a71.713 71.713 0 0123.342-10.722 240.175 240.175 0 0029.19-9.696 146.802 146.802 0 0027.857-14.775 94.838 94.838 0 0022.47-21.084c.77 2 1.488 4.052 2.154 6.053a85.643 85.643 0 014.361 25.805 55.891 55.891 0 01-1.283 12.466 19.35 19.35 0 01-.718 2.975l-.41 1.488-.564 2.36a36.159 36.159 0 00-1.026 10.26 40.58 40.58 0 005.745 18.469 80.813 80.813 0 0010.312 13.595c14.98 15.493 31.653 26.266 46.325 38.424 7.336 5.951 14.21 12.21 19.34 18.776 4.464 5.849 6.875 11.492 6.67 16.725a3.22 3.22 0 01-.565.615c-1.026 1.129-2.154 2.206-3.283 3.232-2.257 2.155-4.822 4.104-7.285 6.054a113.441 113.441 0 01-16.314 10.26 134.341 134.341 0 01-37.244 12.415c-6.618.667-13.236 1.898-20.008 1.744-3.334-.051-6.72.308-10.106 0l-10.158-.718a74.776 74.776 0 01-10.106-1.385l-10.158-1.693c-6.669-1.59-13.236-3.488-19.956-5.233 6.413 2.565 12.774 5.284 19.29 7.695l10.003 3.027a85.953 85.953 0 0010.106 2.617l10.312 2.103c3.488.718 7.028.82 10.517 1.283 7.028.974 14.159.666 21.29.769a146.522 146.522 0 0042.375-8.567 128.473 128.473 0 0020.007-9.286c3.18-1.95 6.413-3.847 9.44-6.105a55.8 55.8 0 003.488-2.616c17.442 7.49 71.617 34.423 63.511 77.157a118.02 118.02 0 00-15.083-2.36c-12.927-.872-25.907-.205-38.168 3.54 24.625 5.746 47.66 12.312 67.41 23.547a97 97 0 0125.907 20.572l4.925 6.515c1.745 2.104 2.77 4.72 4.207 7.029a86.628 86.628 0 016.874 15.339zM613.227 495.548c27.292-34.474 36.475-78.08 25.958-122.661-25.496-107.784-186.07-104.963-196.894-104.655-10.876-.308-171.398-3.13-196.894 104.655-10.517 44.58-1.334 88.187 25.958 122.661 35.86 45.35 98.19 71.31 170.936 71.31s135.076-25.96 170.936-71.31zM530.53 596.202c7.284 29.96 25.29 124.662-14.057 208.129a15.492 15.492 0 01-11.492 8.516 20.748 20.748 0 01-17.853-5.335c-10.516-10.158-20.572-25.754-29.908-46.377a81.49 81.49 0 0022.572-7.13c11.39-6.003 21.803-15.032 26.266-26.985-10.773 6.156-21.34 9.49-31.858 11.902a158.727 158.727 0 01-31.909 3.13 162.593 162.593 0 01-31.91-3.182c-10.465-2.41-21.033-5.745-31.858-11.85 4.464 12.004 14.878 21.033 26.267 26.984a81.812 81.812 0 0022.521 7.183c-9.286 20.571-19.34 36.167-29.857 46.325a20.748 20.748 0 01-17.853 5.335 15.492 15.492 0 01-11.492-8.516c-39.502-83.826-21.187-178.99-13.954-208.489 4.36.462 8.721.975 13.03 1.386 25.036 2.616 50.122 2.821 75.106 2.616 24.984.256 50.07.154 75.105-2.257a538.84 538.84 0 0013.133-1.385z"/><path class="cls-4" d="M728.066 357.643s6.644 85.805-36.23 98.967c-42.872 13.163-5.148-104.723-89.163-142.738 0 0 125.922 219.52-160.381 240.525C155.989 533.391 281.91 313.872 281.91 313.872c-84.015 38.015-46.29 155.901-89.163 142.738-42.874-13.162-36.23-98.967-36.23-98.967C81.809 598.942 431.302 587.82 442.293 587.41c10.99.409 360.484 11.532 285.774-229.767z"/><path class="cls-4" d="M536.302 587.591l-94.276 8.251-94.276-8.25-11.543 15.198s42.893 23.086 105.819 23.086 105.819-23.086 105.819-23.086z"/><path d="M253.553 282.186s20.543-83.577 118.748-84.31c0 0-16.123-98.205 47.637-120.192s76.63-52.364 76.63-52.364l-36.322 17.92-92.342 42.506-14.657 51.301-4.94 39.576-33.903 12.459-52.807 29.315-16.083 53.5z" fill="#d18d66"/><path class="cls-4" d="M442.291 218.008s55.516 58.016 143.15 21.647c24.18-10.034 52.881-3.35 67.622 18.284a55.276 55.276 0 019.567 28.146s40.931-34.709-66.069-86.743c0 0-48.37 52.723-154.27 18.666z"/><path class="cls-3" d="M738.966 352.725a176.309 176.309 0 0111.184 77.67c-2.36 26.472-11.44 52.79-26.933 74.747a159.842 159.842 0 01-26.933 29.447c-4.823 4.617-10.363 8.208-15.545 12.26-5.489 3.592-10.978 7.183-16.672 10.415-22.727 12.928-47.146 21.598-71.822 28.01a366.03 366.03 0 01-41.195 8.311c8.413 34.577 25.6 131.229-16.006 219.518a36.06 36.06 0 01-26.37 19.957 44.943 44.943 0 01-7.387.667 41.023 41.023 0 01-28.37-11.44c-10.926-10.517-21.187-25.497-30.626-44.684-9.44 19.187-19.7 34.167-30.627 44.683a41.023 41.023 0 01-28.37 11.44 44.943 44.943 0 01-7.387-.666 36.06 36.06 0 01-26.369-19.957c-41.76-88.648-24.265-185.71-15.955-219.928a382.559 382.559 0 01-41.194-8.26c-24.574-6.464-48.942-15.185-71.668-28.01-5.644-3.232-11.133-6.875-16.57-10.466-5.182-4.053-10.723-7.644-15.545-12.21a160.378 160.378 0 01-26.78-29.395c-15.544-21.855-24.521-48.12-26.881-74.438a175.797 175.797 0 0111.08-77.568 106.369 106.369 0 018.773-18.058c1.847-2.873 3.284-6.054 5.541-8.67l6.413-8.003a112.07 112.07 0 0132.422-24.112 117.008 117.008 0 0133.808-10.978c.05-1.642.205-3.232.307-4.925.308-3.796.821-7.541 1.488-11.286.513-3.797 1.59-7.439 2.36-11.133.975-3.693 2.206-7.284 3.335-10.927a109.88 109.88 0 0123.752-39.4 52.353 52.353 0 014.002-4.257l4.412-3.796c3.026-2.463 5.797-5.233 9.182-7.08l9.799-6.208c3.437-1.692 6.977-3.18 10.465-4.77l5.284-2.36c1.796-.616 3.592-1.078 5.438-1.642l10.876-3.18c4.207-.975 8.465-1.642 12.672-2.31a196.396 196.396 0 011.436-21.956 160.072 160.072 0 016.926-30.627c6.566-19.956 18.776-39.656 37.193-52.379a93.964 93.964 0 0129.858-13.749 221.605 221.605 0 0026.625-8.772c16.98-6.977 33.038-16.93 42.734-30.422l.462-.615 1.231-1.59a21.867 21.867 0 012.975-2.77 17.94 17.94 0 017.49-3.336 19.044 19.044 0 0115.134 3.438 18.837 18.837 0 015.233 6.156l.82 1.744.411.923.719 1.847c.974 2.463 1.846 4.977 2.667 7.49a105.737 105.737 0 015.336 32.012 77.262 77.262 0 01-1.693 16.776c-.257 1.385-.667 2.77-1.026 4.155l-.565 2.052-.256 1.232a14.045 14.045 0 00-.462 4.36c.051 5.695 4.617 12.672 10.517 19.033 12.312 12.877 28.729 23.804 44.324 36.578 7.85 6.412 15.698 13.338 22.675 22.213a55.669 55.669 0 018.67 15.698 38.229 38.229 0 012.104 11.133c9.183 3.95 25.753 12.004 41.04 24.163 28.678 22.726 40.067 49.506 33.398 77.875 1.077.462 2.154.821 3.18 1.334a108.744 108.744 0 0132.628 24.06l6.464 8.055c2.257 2.667 3.694 5.797 5.54 8.72 3.797 5.85 6.31 12.005 8.824 18.161zm-12.158 75.465a160.275 160.275 0 00-8.106-67.923 86.628 86.628 0 00-6.874-15.34c-1.436-2.308-2.462-4.924-4.207-7.028l-4.925-6.515a97 97 0 00-25.907-20.572c-19.75-11.235-42.785-17.801-67.41-23.547 12.261-3.745 25.24-4.412 38.168-3.54a118.02 118.02 0 0115.083 2.36c8.106-42.734-46.069-69.667-63.51-77.157a56.181 56.181 0 01-3.49 2.616c-3.026 2.258-6.258 4.156-9.439 6.105a128.473 128.473 0 01-20.007 9.286 146.522 146.522 0 01-42.375 8.567c-7.131-.103-14.262.205-21.29-.77-3.489-.461-7.029-.564-10.517-1.282l-10.312-2.103a85.953 85.953 0 01-10.106-2.617l-10.004-3.027c-6.515-2.41-12.876-5.13-19.289-7.695 6.72 1.744 13.287 3.643 19.956 5.233l10.158 1.693a74.776 74.776 0 0010.106 1.385l10.158.718c3.386.308 6.772-.051 10.106 0 6.772.154 13.39-1.077 20.008-1.744a134.341 134.341 0 0037.245-12.415 113.441 113.441 0 0016.313-10.26c2.463-1.95 5.028-3.899 7.285-6.054 1.129-1.026 2.257-2.103 3.283-3.232a3.22 3.22 0 00.565-.615c.205-5.233-2.206-10.876-6.67-16.725-5.13-6.566-12.004-12.825-19.34-18.776-14.672-12.158-31.345-22.932-46.325-38.424a80.813 80.813 0 01-10.312-13.595 40.58 40.58 0 01-5.745-18.469 36.159 36.159 0 011.026-10.26l.564-2.36.41-1.488a19.35 19.35 0 00.718-2.975 55.891 55.891 0 001.283-12.466 85.643 85.643 0 00-4.36-25.805c-.668-2-1.386-4.053-2.155-6.053a94.838 94.838 0 01-22.47 21.084A146.802 146.802 0 01446.24 61.18a240.175 240.175 0 01-29.19 9.696 71.713 71.713 0 00-23.342 10.722c-14.057 9.696-23.907 24.984-29.55 42.118a139.81 139.81 0 00-6.002 26.677 158.304 158.304 0 00-1.129 27.241l.564 9.286-9.747 1.744c-6.464 1.18-13.03 1.898-19.392 3.335l-9.285 2.719c-1.59.461-3.13.872-4.669 1.385l-4.36 2c-2.873 1.334-5.849 2.565-8.721 3.95l-7.952 5.028c-2.822 1.488-5.028 3.796-7.439 5.797l-3.591 3.027a34.147 34.147 0 00-3.232 3.437 90.414 90.414 0 00-19.392 32.217c-.923 3.078-2 6.105-2.821 9.235-.616 3.18-1.59 6.258-2.001 9.439-.564 3.18-.975 6.413-1.231 9.593a33.67 33.67 0 00-.206 2.36 67.975 67.975 0 0121.65 5.079c-12.415 4.412-23.958 7.593-35.244 11.081-11.235 3.437-22.317 6.72-32.269 12.21a92.408 92.408 0 00-26.112 20.52l-4.977 6.618c-1.744 2.104-2.77 4.72-4.206 7.028-2.873 4.618-4.925 10.056-6.926 15.39a161.182 161.182 0 00-8.208 68.129 130.86 130.86 0 0023.804 62.947 136.692 136.692 0 0023.137 24.983c4.155 3.95 9.08 7.029 13.646 10.62 4.873 3.13 9.696 6.31 14.774 9.183 20.367 11.389 42.734 19.75 65.82 25.856 46.274 12.568 95.164 16.057 143.849 17.493 24.368-.974 48.736-1.898 72.796-4.925 24.01-2.667 47.865-6.669 70.95-12.927 23.086-6.157 45.35-14.57 65.717-25.908 5.028-2.873 9.85-6.053 14.724-9.183 4.514-3.54 9.44-6.617 13.594-10.568 8.876-7.284 16.263-15.954 23.035-24.932a129.613 129.613 0 0023.701-62.69zM516.473 804.33c39.348-83.466 21.341-178.169 14.056-208.129-4.36.513-8.721.975-13.133 1.386-25.035 2.41-50.121 2.513-75.105 2.257-24.984.205-50.07 0-75.105-2.616-4.31-.41-8.67-.924-13.03-1.386-7.234 29.499-25.549 124.663 13.953 208.489a15.492 15.492 0 0011.492 8.516 20.748 20.748 0 0017.853-5.335c10.516-10.158 20.571-25.754 29.857-46.325a81.812 81.812 0 01-22.521-7.183c-11.39-5.95-21.803-14.98-26.267-26.984 10.825 6.105 21.393 9.44 31.859 11.85a162.593 162.593 0 0031.909 3.181 158.727 158.727 0 0031.91-3.13c10.516-2.41 21.084-5.745 31.858-11.901-4.464 11.953-14.878 20.982-26.267 26.984a81.49 81.49 0 01-22.572 7.131c9.337 20.623 19.392 36.219 29.908 46.377a20.748 20.748 0 0017.853 5.335 15.492 15.492 0 0011.492-8.516z"/><ellipse class="cls-1" cx="419.101" cy="125.992" rx="39.942" ry="16.856" transform="rotate(-65.914 419.1 125.992)"/><path class="cls-1" d="M405.118 188.402a12.773 12.773 0 11-4.675-17.448 12.773 12.773 0 014.675 17.448z"/><path d="M397.454 799.26a20.748 20.748 0 01-17.853 5.336 15.492 15.492 0 01-11.492-8.516c-18.218-38.662-24.125-79.722-24.506-115.653-.47 37.805 4.878 82.25 24.506 123.904a15.491 15.491 0 0011.492 8.516 20.747 20.747 0 0017.853-5.335c10.516-10.158 20.572-25.754 29.857-46.326-1.185-.204-2.361-.476-3.54-.726-8.283 16.883-17.124 29.92-26.317 38.8zm119.019-3.18a15.492 15.492 0 01-11.492 8.516 20.748 20.748 0 01-17.853-5.335c-9.196-8.883-18.038-21.923-26.357-38.846-1.182.248-2.36.516-3.552.72 9.337 20.623 19.392 36.219 29.91 46.377a20.747 20.747 0 0017.852 5.335 15.491 15.491 0 0011.492-8.516c19.644-41.671 24.992-86.141 24.516-123.959-.375 35.945-6.282 77.028-24.516 115.708z" fill="#c7865f"/><path class="cls-3" d="M224.626 220.596a10.055 10.055 0 01-1.869-.173l-69.38-12.853a107.335 107.335 0 01-44.727 9.727 108.589 108.589 0 11104.606-79.234l21.182 69.271a10.261 10.261 0 01-9.812 13.262zm-72.638-33.98a10.212 10.212 0 011.868.173l56.013 10.378-17.138-56.048a10.258 10.258 0 01.02-6.065 88.141 88.141 0 10-84.101 61.722 87.19 87.19 0 0038.806-9.105 10.278 10.278 0 014.532-1.055z"/><path d="M106.996 84.71l-2.174 2.174-2.174-2.174a29.009 29.009 0 00-41.025 0 29.009 29.009 0 000 41.025l2.174 2.174L96.69 160.8a11.5 11.5 0 0016.264 0l35.067-35.066a29.009 29.009 0 000-41.025 29.009 29.009 0 00-41.025 0z" fill="#ca3135"/><path d="M307.105 188.804c-6.862-35.679 20.583-68.612 56.262-68.612A57.982 57.982 0 01421 177.826v71.356c8.233 0 16.466-1.372 24.7-1.372s15.095 0 23.328 1.372v-71.356a57.982 57.982 0 0157.634-57.634c35.678 0 63.123 32.933 57.634 68.612l-15.094 83.706c53.517 23.328 94.684 64.496 94.684 115.268v31.562c0 42.54-27.445 78.218-67.24 101.546-39.795 24.7-91.94 38.422-150.946 38.422s-111.152-13.722-150.946-38.422c-38.423-23.328-65.868-59.007-65.868-101.546v-31.562c0-50.772 39.795-91.94 93.312-115.268z" fill-rule="evenodd" fill="#24170e"/><path d="M646.048 419.34c0 67.24-89.196 122.13-198.975 122.13s-198.975-54.89-198.975-122.13v-31.562h397.95v31.562z" fill="#f8db99"/><path d="M324.944 186.06c-5.49-24.701 13.722-48.03 38.423-48.03a39.824 39.824 0 0139.795 39.796v90.568c13.722-1.373 27.444-2.745 42.539-2.745 13.722 0 27.445 1.372 41.167 2.745v-90.568a39.824 39.824 0 0139.795-39.795c24.7 0 43.912 23.328 39.795 48.028L548.62 284.86c57.634 21.956 97.429 60.379 97.429 104.29 0 67.24-89.196 122.13-198.975 122.13s-198.975-54.89-198.975-122.13c0-43.911 38.423-82.334 96.057-104.29z" fill="#c68959" fill-rule="evenodd"/><path class="cls-3" d="M501.698 456.61c10.26 0 17.083 10.877 12.312 20.008-8.978 17.083-28.882 38.938-71.719 38.938s-62.742-21.855-71.72-38.938c-4.77-9.131 2.053-20.007 12.313-20.007h118.814z"/><path d="M442.291 480.822s-17.257-.41-31.763 4.871a5.838 5.838 0 00-1.013 10.474c6.323 3.904 16.877 8.18 32.776 8.18s26.453-4.276 32.776-8.18a5.838 5.838 0 00-1.013-10.474c-14.506-5.282-31.763-4.871-31.763-4.871z" fill="#9e3149"/><path class="cls-3" d="M563.187 405.957a7.694 7.694 0 01-7.696-7.695 23.818 23.818 0 10-47.636 0 7.695 7.695 0 01-15.39 0 39.209 39.209 0 1178.417 0 7.694 7.694 0 01-7.695 7.695zm-179.294 0a7.694 7.694 0 01-7.696-7.695 23.818 23.818 0 10-47.636 0 7.695 7.695 0 01-15.39 0 39.209 39.209 0 1178.417 0 7.694 7.694 0 01-7.695 7.695z"/></g></g></svg>