<svg xmlns="http://www.w3.org/2000/svg" viewBox="0 0 374.828 202.563"><g data-name="Layer 2"><g data-name="Layer 6"><path d="M357.343 37.741l-.045-.02a34.887 34.887 0 00-14.039-3.282 21.143 21.143 0 00-17.08 8.196 28.827 28.827 0 00-3.277 5.005c-.194.386-.465.927-3.99 8.64-6.127-10.448-6.737-11.393-7.061-11.897a23.615 23.615 0 00-6.804-6.707 22.659 22.659 0 00-12.797-3.67c-4.662 0-9.515 1.577-15.319 4.991a37.036 37.036 0 00-10.285 8.597c-9.018-7.861-19.118-11.852-30.105-11.852q-.759 0-1.497.024v-8.032a54.621 54.621 0 00-.343-6.938 25.91 25.91 0 00-2.894-8.723C228.993 6.487 222.486 0 207.455 0c-12.197 0-20.475 4.04-24.604 12.004l-.099.193a26.72 26.72 0 00-2.689 8.463 54.681 54.681 0 00-.342 6.93v8.899a50.161 50.161 0 00-10.322-.891 30.272 30.272 0 00-13.913 3.033 37.587 37.587 0 00-14.738-2.889c-10.935 0-20.992 3.938-29.978 11.69a45.945 45.945 0 00-13.452-28.05A44.981 44.981 0 0064.344 5.644H27.878c-12.15 0-20.41 4.006-24.555 11.911a25.991 25.991 0 00-2.969 8.737A54.112 54.112 0 000 33.378v80.31a37.834 37.834 0 001.64 12.277 21.843 21.843 0 002.161 4.695c-.11.193-.22.384-.316.567a20.324 20.324 0 00-2.265 6.883 33.338 33.338 0 00-.23 4.312v38.076a25.193 25.193 0 001.269 8.563c1.198 3.388 5.741 12.542 19.769 12.542 11.647 0 16.65-6.121 18.613-9.844a21.474 21.474 0 001.777-4.454 32.22 32.22 0 005.674-1.582c.224.364.435.733.675 1.09a34.355 34.355 0 0012.67 11.53 33.613 33.613 0 0015.748 3.946 34.397 34.397 0 0015.41-3.653 31.793 31.793 0 005.287-3.312 33.203 33.203 0 004.717 3.02 33.611 33.611 0 0015.747 3.945 34.4 34.4 0 0015.41-3.653 31.83 31.83 0 005.387-3.384 34.037 34.037 0 0020.16 6.763 31.178 31.178 0 0017.606-5.055 28.19 28.19 0 0015.289 4.575 29.458 29.458 0 007.332-.883 29.264 29.264 0 007.623.883 23.38 23.38 0 008.016-1.325 25.166 25.166 0 008.826 1.462 23.906 23.906 0 0010.98-2.362 19.729 19.729 0 009.807 2.774 17.836 17.836 0 0010.092-3.14c.402.198.802.398 1.217.582a37.013 37.013 0 0015.103 3.038c7.037 0 12.357-.854 16.742-2.686 8.06-3.367 12.871-10.253 12.871-18.42a20.144 20.144 0 00-.821-5.647c.286-.557.552-1.157.804-1.779a29.913 29.913 0 009.983 1.975 22.01 22.01 0 0013.338-4.3 23.846 23.846 0 006.692-7.548c.763-1.392 1.598-3.165 2.552-5.415l38.313-85.694q.175-.356.418-.84a25.773 25.773 0 002.742-11.628c0-5.65-2.272-16.132-17.485-22.84zM139.119 141.808c-.125-.097-.253-.187-.378-.281.249.008.498.015.748.02-.124.087-.248.172-.37.26z" fill="#24170e"/><path d="M87.687 66.437a34.357 34.357 0 018.538 22.719q-.292 14.471-9.913 24.238a31.584 31.584 0 01-23.37 9.767H24.887q-10.13 0-11.866-5.498a24.18 24.18 0 01-.868-7.525v-80.31a41.828 41.828 0 01.217-5.065A11.638 11.638 0 0113.743 21q2.025-3.907 11.287-3.907h36.466a29.781 29.781 0 0122.284 9.261 30.794 30.794 0 019.406 22.574 30.144 30.144 0 01-5.499 17.51zM70.612 87.71a15.458 15.458 0 00-.796-5.499 5.116 5.116 0 00-2.677-2.894 22.566 22.566 0 00-8.103-1.158q-5.21 0-7.814-2.025-2.605-2.025-2.605-8.32 0-6.296 2.677-8.321 2.676-2.025 8.9-2.026 5.785 0 6.945-3.039a21.985 21.985 0 00.434-5.21q0-3.615-2.387-5.064-2.388-1.445-7.163-1.447H37.764V97.55h23.732q9.116 0 9.116-9.84zm84.507-32.56q.868-8.102 11.431-8.103a29.967 29.967 0 018.393.868 6.073 6.073 0 013.835 3.039 12.427 12.427 0 011.302 3.835 42.091 42.091 0 01.217 4.992v50.646a42.038 42.038 0 01-.217 4.993 13.452 13.452 0 01-1.23 3.834q-2.028 3.765-9.912 3.763-7.889 0-10.564-1.954a7.806 7.806 0 01-3.11-5.716q-5.356 7.672-17.871 7.67-12.519 0-23.226-11.432a38.095 38.095 0 01.073-53.034q10.778-11.358 23.659-11.36a22.552 22.552 0 018.972 1.737 19.967 19.967 0 015.643 3.256 20.272 20.272 0 012.605 2.967zm-26.336 30.1a12 12 0 003.762 8.61 12.293 12.293 0 009.116 3.835 11.515 11.515 0 008.9-3.907 12.542 12.542 0 003.545-8.61 13.375 13.375 0 00-3.4-8.755 11.3 11.3 0 00-9.117-4.052 11.721 11.721 0 00-9.261 4.052 13.135 13.135 0 00-3.545 8.827zm104.909-38.058q12.878 0 23.66 11.431a38.095 38.095 0 01.072 53.034q-10.71 11.362-23.009 11.36-12.3 0-17.509-6.946-1.16 7.091-12.444 7.09-9.117 0-11.142-3.907a13.381 13.381 0 01-1.23-3.834 42.035 42.035 0 01-.217-4.993V24.04a42.089 42.089 0 01.217-4.992 11.827 11.827 0 011.23-3.69q2.024-3.907 11.287-3.907 9.116 0 10.997 3.907a11.624 11.624 0 011.375 3.835 42.04 42.04 0 01.217 4.992v30.098q5.786-7.088 16.496-7.09zm-12.662 46.74a11.508 11.508 0 008.9 3.906 13.112 13.112 0 0012.878-12.59 13.026 13.026 0 00-3.473-8.754 11.684 11.684 0 00-9.26-3.979 11.375 11.375 0 00-9.19 4.052 13.363 13.363 0 00-3.4 8.754 12.531 12.531 0 003.545 8.61zm127.412-46.017q8.536 3.765 8.537 9.117a10.86 10.86 0 01-1.158 4.92 23.739 23.739 0 00-1.157 2.46l-37.913 84.796q-1.16 2.747-1.953 4.197a8.93 8.93 0 01-2.532 2.749 7.032 7.032 0 01-4.341 1.302q-2.605 0-7.67-2.17-8.54-3.765-8.537-8.972 0-3.473 13.891-33.137L276.813 64.7q-2.896-4.775-2.894-7.09 0-4.63 7.814-9.262 4.918-2.892 7.67-2.894a7.95 7.95 0 014.485 1.158A8.747 8.747 0 01296.421 49q.793 1.232 7.958 13.458 7.163 12.23 13.675 22.791.722-2.313 7.814-17.871 7.088-15.553 7.597-16.569a14.68 14.68 0 011.664-2.46 6.265 6.265 0 015.282-2.46 20.643 20.643 0 018.03 2.026z" fill="#fff"/><path d="M50.257 142.988a18.141 18.141 0 011.784 8.096 17.918 17.918 0 01-1.784 8.06 15.835 15.835 0 01-4.596 5.73 19.109 19.109 0 01-11.8 4.39h-8.576v7.752a19.918 19.918 0 01-.103 2.367 5.498 5.498 0 01-.652 1.818q-.96 1.852-5.35 1.852-4.803 0-5.626-2.538a11.466 11.466 0 01-.412-3.568v-38.075a19.934 19.934 0 01.103-2.367 5.483 5.483 0 01.652-1.818q.96-1.852 5.351-1.852h14.681a19.03 19.03 0 0111.732 4.39 15.78 15.78 0 014.596 5.763zm-12.28 12.623a5.323 5.323 0 001.99-4.527 5.421 5.421 0 00-1.99-4.562 6.647 6.647 0 00-4.116-1.544h-8.576v12.143h8.644a6.65 6.65 0 004.048-1.51zm23.256-4.116a18.846 18.846 0 0126.275-.034 18.911 18.911 0 012.744 23.668 18.498 18.498 0 01-7.169 6.518 19.447 19.447 0 01-8.747 2.092 18.685 18.685 0 01-8.781-2.23 19.452 19.452 0 01-7.17-6.585 17.288 17.288 0 01-2.915-9.845 17.73 17.73 0 015.763-13.584zm8.575 18.49a7.284 7.284 0 004.46 1.68 7.479 7.479 0 004.528-1.715 6.89 6.89 0 00.137-10.085 7.36 7.36 0 00-4.597-1.647 7.183 7.183 0 00-4.596 1.715 6.096 6.096 0 00-2.127 5.043 5.91 5.91 0 002.195 5.008zm32.586-18.49a18.846 18.846 0 0126.276-.034 18.911 18.911 0 012.744 23.668 18.498 18.498 0 01-7.17 6.518 19.447 19.447 0 01-8.746 2.092 18.685 18.685 0 01-8.782-2.23 19.452 19.452 0 01-7.168-6.585 17.288 17.288 0 01-2.916-9.845 17.73 17.73 0 015.762-13.584zm8.576 18.49a7.284 7.284 0 004.46 1.68 7.479 7.479 0 004.527-1.715 6.89 6.89 0 00.137-10.085 7.36 7.36 0 00-4.596-1.647 7.183 7.183 0 00-4.597 1.715 6.096 6.096 0 00-2.126 5.043 5.91 5.91 0 002.195 5.008z" fill="#815c3c"/><path d="M150.142 165.045a5.583 5.583 0 001.92 4.527 6.252 6.252 0 004.083 1.613 7.114 7.114 0 004.047-1.27 6.037 6.037 0 013.053-1.269q2.059 0 5.009 3.636a6.029 6.029 0 011.577 3.568q0 2.608-3.773 4.87a16.3 16.3 0 01-9.605 2.745 19.738 19.738 0 01-12.28-4.597 16.324 16.324 0 01-4.596-5.865 18.258 18.258 0 01-1.784-8.096 17.826 17.826 0 011.784-8.026 16.48 16.48 0 014.596-5.797 19.178 19.178 0 0112.143-4.528 18.041 18.041 0 015.077.72 17.03 17.03 0 013.636 1.407l1.098.686q1.235.823 1.92 1.303a3.922 3.922 0 011.784 3.122 7.412 7.412 0 01-1.44 3.944q-2.47 3.774-4.734 3.774a7.941 7.941 0 01-3.704-1.51 4.953 4.953 0 00-3.534-1.166 6.6 6.6 0 00-4.287 1.646 5.598 5.598 0 00-1.99 4.563zm47.611-14.235q.412-3.842 5.42-3.843a14.209 14.209 0 013.979.412 2.88 2.88 0 011.818 1.44 5.891 5.891 0 01.617 1.819 19.932 19.932 0 01.103 2.367v24.011a19.906 19.906 0 01-.103 2.367 6.38 6.38 0 01-.583 1.818q-.961 1.785-4.7 1.784-3.739 0-5.007-.927a3.7 3.7 0 01-1.475-2.71q-2.539 3.638-8.473 3.637-5.934 0-11.01-5.42a18.06 18.06 0 01.034-25.143q5.11-5.385 11.216-5.386a10.694 10.694 0 014.254.823 9.467 9.467 0 012.675 1.544 9.623 9.623 0 011.235 1.406zm-12.486 14.269a5.69 5.69 0 001.784 4.082 5.829 5.829 0 004.322 1.818 5.46 5.46 0 004.22-1.852 5.947 5.947 0 001.68-4.082 6.342 6.342 0 00-1.612-4.151 5.358 5.358 0 00-4.322-1.92 5.557 5.557 0 00-4.39 1.92 6.228 6.228 0 00-1.682 4.185zm51.179-.069l9.124 7.547a10.755 10.755 0 012.16 2.195 2.847 2.847 0 01.447 1.44q0 1.647-2.127 4.46-2.333 2.881-4.116 2.881-1.51 0-4.185-1.99l-.686-.48q-1.58-1.302-4.871-4.562-3.293-3.257-5.008-4.63v5.282a19.918 19.918 0 01-.103 2.367 5.498 5.498 0 01-.652 1.818q-.892 1.785-5.282 1.784-4.322 0-5.283-1.853a6.342 6.342 0 01-.583-1.818 19.904 19.904 0 01-.103-2.366V135.99a19.934 19.934 0 01.103-2.367 6.352 6.352 0 01.583-1.818q.96-1.852 5.351-1.852 3.293 0 4.665 1.166a3.867 3.867 0 011.235 3.019q.068.617.069 1.92v21.748q1.235-1.03 3.739-3.499 2.503-2.47 3.739-3.499l.823-.549a7.249 7.249 0 014.116-1.852q1.714 0 3.945 2.779 2.229 2.778 2.23 4.356 0 1.579-2.539 3.704zm48.296-4.287q0 4.219-2.092 6.243a6.527 6.527 0 01-4.63 2.023h-16.26q0 1.922 2.264 3.225a9.002 9.002 0 004.528 1.303 18.89 18.89 0 006.243-.823l.755-.274a6.923 6.923 0 012.744-.755q2.194 0 3.773 3.087a7.585 7.585 0 01.892 3.156q0 6.107-14.613 6.106a22.04 22.04 0 01-9.021-1.75 15.315 15.315 0 01-6.14-4.63 19.726 19.726 0 01-4.322-12.418q0-8.644 5.59-13.823a19.755 19.755 0 0113.962-5.18q9.535 0 13.995 6.723a13.953 13.953 0 012.332 7.787zm-14.475 2.024q2.606 0 2.607-2.196a3.094 3.094 0 00-1.2-2.538 5.38 5.38 0 00-3.43-.96 6.938 6.938 0 00-4.426 1.817 5.101 5.101 0 00-2.195 3.877z" fill="#ae724a"/></g></g></svg>