<svg xmlns="http://www.w3.org/2000/svg" viewBox="0 0 454.193 199.403"><defs><style>.cls-7{fill:#6b4b32}.cls-8{fill:#926747}</style></defs><g id="Layer_2" data-name="Layer 2"><g id="Layer_7" data-name="Layer 7"><path d="M0 0h199.403v199.403H0zm254.791 0h199.403v199.403H254.791z" fill="none"/><path d="M308.456 49.81a19.002 19.002 0 1137.645-3.628v23.585c2.722 0 5.443-.454 8.164-.454a44.003 44.003 0 017.71.454V46.182a19.164 19.164 0 0119.05-19.05c11.792 0 20.863 10.886 19.049 22.679l-4.99 27.666c17.69 7.71 31.296 21.317 31.296 38.099v10.431c0 14.06-9.071 25.853-22.224 33.563-13.153 8.164-30.388 12.7-49.89 12.7s-36.739-4.536-49.892-12.7c-12.7-7.71-21.77-19.503-21.77-33.563v-10.431c0-16.782 13.153-30.388 30.841-38.099z" fill-rule="evenodd"/><path d="M420.484 126.007c0 22.224-29.481 40.367-65.765 40.367s-65.765-18.143-65.765-40.367v-10.431h131.53v10.431z" fill="#f8db99"/><path d="M314.353 48.903a13.078 13.078 0 1125.852-2.72v29.934a137.354 137.354 0 0114.06-.908c4.536 0 9.071.454 13.607.908V46.182a13.162 13.162 0 0113.153-13.153c8.164 0 14.513 7.71 13.153 15.874l-5.896 32.656c19.049 7.257 32.202 19.957 32.202 34.47 0 22.224-29.481 40.366-65.765 40.366s-65.765-18.142-65.765-40.366c0-14.513 12.7-27.213 31.748-34.47z" fill="#c68959" fill-rule="evenodd"/><path d="M336.123 112.854c0 5.897-3.175 10.886-7.257 10.886s-7.257-4.99-7.257-10.886 3.175-10.885 7.257-10.885 7.257 4.99 7.257 10.885zm50.344 0c0 5.897-3.174 10.886-7.256 10.886s-7.257-4.99-7.257-10.886 3.175-10.885 7.257-10.885 7.256 4.99 7.256 10.885z" fill="#5d320e"/><g id="_0VNaB8" data-name="0VNaB8"><path d="M42.01 116.866c-9.336-13.802.096-36.008 15.66-39.716 1.105-.263 1.577-.678 1.665-1.854.737-9.834 6.14-17.064 13.153-23.39 8.891-8.021 18.132-15.538 29.31-20.234 8.379-3.52 17.06-5.27 26.182-4.252a9.448 9.448 0 011.661.3c1.818.544 3.633 1.234 4.035 3.358.405 2.144-.72 3.734-2.392 4.936a19.964 19.964 0 00-5.624 5.931c-4.053 6.783-4.126 13.552.256 20.246 3.217 4.913 7.729 8.382 12.68 11.361a99.557 99.557 0 0110.52 6.87c6.99 5.513 10.162 12.55 8.465 21.471a23.708 23.708 0 01-3.057 7.314c-.68 1.179-.542 1.61.57 2.32a33.11 33.11 0 0112.952 14.945c5.56 12.862 1.071 26.707-11.147 34.794-7.644 5.06-16.272 7.302-25.172 8.562a225.696 225.696 0 01-46.103 2.035c-12.655-.808-25.235-2.197-37.15-6.894-7.56-2.98-13.871-7.63-17.331-15.284-4.594-10.163-1.617-22.443 7.081-29.822 1.227-1.041 2.523-2.001 3.785-2.997z"/><path d="M143.488 158.845c-4.85 1.794-9.963 2.434-15.015 3.235a186.414 186.414 0 01-34.863 2.408 181.525 181.525 0 01-28.512-2.938 2.453 2.453 0 01-.633-.335 51.703 51.703 0 01-12.645-12.453 19.573 19.573 0 012.5-25 11.361 11.361 0 016.304-3.236c1.996-.02 3.687 1.053 5.538 1.556 2.507.68 4.486.052 5.392-1.839.917-1.915.084-4.234-2.183-5.52a21.826 21.826 0 00-10.46-2.448c-.563-.014-1.126-.048-1.689-.073-2.966-2.645-3.257-6.251-2.865-9.726.725-6.437 4.226-11.323 9.655-14.802a10.858 10.858 0 015.804-1.996c2.766.831 5.517 1.716 8.301 2.477a4.143 4.143 0 005.036-2.225c.855-2.069.105-3.74-1.579-5.105-1.473-1.195-3.335-1.534-4.967-2.373a2.49 2.49 0 01-.884-2.79 18.877 18.877 0 012.023-5.398C82.985 60.92 88.629 51.856 95.91 43.92a48.087 48.087 0 0116.544-7.268c.668.907.073 1.698-.273 2.475-5.31 11.912-2.04 26.556 6.932 35.193 5.573 5.364 11.735 10.047 17.16 15.559a19.852 19.852 0 015.776 12.186c.139 1.318.47 2.738-.535 3.934-1.386-.375-2.794-.685-4.153-1.141a5.811 5.811 0 00-4.204.415 3.773 3.773 0 00-2.528 3.255 4.003 4.003 0 002.167 3.754c2.357 1.535 5.157 1.672 7.752 2.455 1.993.798 3.006 2.632 4.317 4.134 4.528 5.185 7.475 11.12 7.835 18.07a26.643 26.643 0 01-5.076 17.291c-1.205 1.683-2.176 3.598-4.137 4.612z" fill="#815c3c"/><path class="cls-7" d="M141.515 106c.707-8.728-3.876-14.692-10.153-19.92-6.163-5.132-12.713-9.979-17.125-16.824-6.34-9.836-7.069-20.263-2.306-31.015a16.398 16.398 0 00.524-1.588c2.323-.995 4.84-.873 7.927-1.526a17.349 17.349 0 00-5.55 10.381c-1.838 11.806 2.065 21.366 11.157 28.94a99.42 99.42 0 0013.926 9.157q1.253.73 2.487 1.491c8.693 5.376 9.058 12.784 5.03 21.137-.453.94-1.058 1.464-2.08 1.082-1.268-.473-2.714-.427-3.837-1.315z"/><path class="cls-8" d="M60.624 120.526c-7.703 3.268-11.556 9.195-11.557 17.453a19.776 19.776 0 006.016 14.008 97.26 97.26 0 009.143 8.552c.234.186.661.271.239.676-7.632-1.448-15.067-3.408-21.186-8.567-7.758-6.54-8.546-16.773-1.58-24.361 5.006-5.454 11.234-8.548 18.925-7.761z"/><path class="cls-7" d="M143.488 158.845c2.325-3.336 5.03-6.401 6.555-10.28 3.83-9.747 2.243-18.689-3.84-26.97-1.751-2.384-3.762-4.577-5.654-6.857 11.838 1.259 22.499 12.218 22.224 23.196-.201 8.056-4.188 14.021-11.21 17.908a22.508 22.508 0 01-8.075 3.003z"/><path class="cls-8" d="M69.817 85.678c-3.393 1.424-6.703 2.863-9.366 5.634-5.912 6.152-7.114 13.245-3.229 20.89a14.972 14.972 0 00-4.936 1.004c-1.853.691-2.998-.032-3.968-1.556a14.083 14.083 0 01-1.735-11.794c2.024-7.28 6.213-12.665 13.75-14.82a15.805 15.805 0 019.484.642zM95.91 43.921c.279 1.389-.898 2.099-1.588 2.85-6.257 6.816-10.807 14.773-15.429 22.69a22.247 22.247 0 00-2.536 5.95 4.393 4.393 0 00.25 3.04c-2.367-.404-4.724-.901-7.105-1.186-1.94-.232-2.335-1.19-1.967-2.937a21.733 21.733 0 014.5-9.727 99.325 99.325 0 0123.876-20.68z"/><path d="M101.277 142.362c-5.569-.356-10.17-1.367-14.215-4.148-2.582-1.775-3.189-4.357-1.52-6.366a3.775 3.775 0 014.5-1.336c2.816.945 5.24 2.77 8.292 3.237a14.717 14.717 0 009.334-1.508 21.619 21.619 0 014.584-2.12 4.001 4.001 0 013.563 7.006 23.064 23.064 0 01-10.501 4.625 19.36 19.36 0 01-4.037.61zM87.36 104.41a6.408 6.408 0 01-.012 12.807c-3.311-.054-5.798-2.93-5.82-6.732a5.759 5.759 0 015.833-6.076zm32.936 6.233c.012 3.833-2.406 6.541-5.87 6.573-3.443.032-5.842-2.643-5.871-6.547-.029-3.743 2.162-6.223 5.53-6.261a5.952 5.952 0 016.211 6.235z"/></g><text transform="translate(195.652 138.255)" font-size="122.295" font-family="FredokaOne-Regular,Fredoka One">+</text></g></g></svg>