<svg xmlns="http://www.w3.org/2000/svg" viewBox="0 0 1256.498 921.677"><defs><style>.cls-2{fill:#ae724a}.cls-3{fill:#24170e}.cls-4{fill:#945d3c}.cls-6{fill:#fff}.cls-9{fill:#f8db99}.cls-11{fill:#ca3135}.cls-13{fill:#e7b095}</style></defs><g id="Layer_2" data-name="Layer 2"><g id="Layer_1-2" data-name="Layer 1"><path id="blob" d="M1046.299 744.043q-128.961 190.792-340.952 176.66Q493.357 906.57 300.8 729.91t-1.767-358.618Q489.824 189.335 756.58 90.406t342.718 181.958q75.963 280.888-52.998 471.68z" fill="#f5fae2"/><path class="cls-2" d="M807.157 598.352s-73.327 96.947-52.416 139.015 42.54 1.52 42.54 1.52l33.29-39.327 1.212-93.508z"/><path class="cls-3" d="M770.816 765.59a21.935 21.935 0 01-3.2-.23c-5.732-.85-13.838-4.142-19.917-15-12.491-22.311-9.625-63.706 7.133-103.006 24.22-56.787 59.646-60.955 61.144-61.105l2.113 21.166-1.057-10.583 1.273 10.557c-1.013.145-25.033 4.05-43.906 48.31-15.537 36.43-15.79 70.608-8.14 84.273.838 1.5 2.537 4.06 4.473 4.346 7.11 1.078 28.159-19.582 43.322-42.452l17.729 11.752c-8.309 12.533-36.43 51.97-60.967 51.973z"/><path class="cls-2" d="M1066.914 598.352s73.327 96.947 52.416 139.015-42.54 1.52-42.54 1.52l-33.29-39.327-1.212-93.508z"/><path class="cls-3" d="M1103.255 765.59a21.935 21.935 0 003.2-.23c5.732-.85 13.838-4.142 19.917-15 12.491-22.311 9.625-63.706-7.133-103.006-24.22-56.787-59.645-60.955-61.144-61.105l-2.113 21.166 1.057-10.583-1.273 10.557c1.013.145 25.033 4.05 43.906 48.31 15.538 36.43 15.79 70.608 8.14 84.273-.838 1.5-2.537 4.06-4.473 4.346-7.11 1.078-28.159-19.582-43.322-42.452l-17.729 11.752c8.309 12.533 36.431 51.97 60.967 51.973z"/><ellipse class="cls-3" cx="937.036" cy="862.549" rx="140.725" ry="14.243"/><path class="cls-2" d="M1223.268 370.169a166.13 166.13 0 018.401 70.404 134.348 134.348 0 01-24.567 64.98c-7.019 9.306-14.676 18.292-23.875 25.843-4.307 4.095-9.412 7.285-14.092 10.954-5.051 3.244-10.05 6.54-15.261 9.519-21.11 11.751-44.189 20.472-68.118 26.853-23.928 6.488-48.655 10.635-73.541 13.4-24.94 3.138-50.198 4.095-75.456 5.105-50.463-1.489-101.14-5.105-149.103-18.133-23.93-6.327-47.114-14.995-68.224-26.8-5.265-2.978-10.263-6.275-15.315-9.518-4.732-3.723-9.837-6.913-14.144-11.008-9.253-7.55-17.017-16.484-23.982-25.896a135.641 135.641 0 01-24.674-65.246 167.07 167.07 0 018.508-70.617c2.074-5.53 4.201-11.167 7.179-15.952 1.489-2.393 2.552-5.105 4.36-7.285l5.158-6.86a95.784 95.784 0 0127.066-21.27c10.316-5.69 21.802-9.093 33.448-12.656 11.698-3.616 23.663-6.913 36.531-11.486a70.459 70.459 0 00-22.44-5.264c.053-.851.106-1.649.213-2.446.266-3.297.691-6.647 1.276-9.944.425-3.297 1.436-6.487 2.074-9.784.85-3.244 1.967-6.381 2.925-9.572a93.716 93.716 0 0120.1-33.394 35.395 35.395 0 013.35-3.563l3.722-3.137c2.5-2.074 4.786-4.467 7.71-6.009l8.243-5.211c2.977-1.436 6.062-2.712 9.04-4.094l4.52-2.074c1.595-.532 3.19-.957 4.838-1.436l9.625-2.818c6.594-1.49 13.4-2.234 20.1-3.457l10.104-1.808-.585-9.624a164.087 164.087 0 011.17-28.237 144.918 144.918 0 016.221-27.65c5.85-17.761 16.059-33.608 30.63-43.658a74.333 74.333 0 0124.194-11.113 248.95 248.95 0 0030.257-10.05 152.165 152.165 0 0028.874-15.315 98.302 98.302 0 0023.29-21.855c.798 2.074 1.543 4.2 2.234 6.275a88.772 88.772 0 014.52 26.747 57.932 57.932 0 01-1.33 12.922 20.057 20.057 0 01-.744 3.084l-.425 1.542-.585 2.446a37.48 37.48 0 00-1.064 10.635 42.063 42.063 0 005.956 19.143 83.764 83.764 0 0010.688 14.091c15.527 16.06 32.81 27.226 48.017 39.829 7.605 6.168 14.73 12.656 20.048 19.462 4.626 6.062 7.125 11.911 6.912 17.335a3.338 3.338 0 01-.585.638c-1.063 1.17-2.233 2.287-3.403 3.35-2.34 2.234-4.998 4.254-7.55 6.275a117.586 117.586 0 01-16.91 10.635 139.248 139.248 0 01-38.606 12.868c-6.86.692-13.719 1.968-20.738 1.808-3.457-.053-6.966.32-10.476 0l-10.528-.744a77.509 77.509 0 01-10.476-1.436l-10.529-1.755c-6.912-1.648-13.719-3.615-20.685-5.423 6.647 2.658 13.24 5.477 19.994 7.976l10.37 3.137a89.096 89.096 0 0010.475 2.712l10.688 2.18c3.616.745 7.285.851 10.901 1.33 7.285 1.01 14.676.691 22.068.797a151.875 151.875 0 0043.923-8.88 133.165 133.165 0 0020.738-9.625c3.297-2.02 6.647-3.988 9.784-6.328a58.247 58.247 0 003.616-2.711c18.08 7.763 74.233 35.68 65.831 79.975a122.332 122.332 0 00-15.633-2.446c-13.4-.904-26.854-.213-39.563 3.67 25.524 5.955 49.4 12.761 69.873 24.407a100.543 100.543 0 0126.853 21.323l5.105 6.753c1.808 2.18 2.871 4.892 4.36 7.285a89.792 89.792 0 017.126 15.9zm-109.329 140.223c28.29-35.734 37.808-80.933 26.907-127.142-26.428-111.722-192.867-108.797-204.087-108.478-11.273-.319-177.659-3.244-204.087 108.478-10.9 46.21-1.382 91.408 26.907 127.142 37.17 47.007 101.778 73.914 177.18 73.914s140.01-26.907 177.18-73.914zm-85.719 104.33c7.552 31.054 26.216 129.216-14.57 215.732a16.058 16.058 0 01-11.91 8.827 21.506 21.506 0 01-18.506-5.53c-10.9-10.529-21.323-26.694-31-48.07a84.467 84.467 0 0023.396-7.392c11.805-6.221 22.6-15.58 27.226-27.97-11.167 6.38-22.12 9.837-33.022 12.337a164.524 164.524 0 01-33.075 3.243 168.533 168.533 0 01-33.075-3.297c-10.848-2.499-21.802-5.955-33.022-12.283 4.627 12.443 15.421 21.802 27.226 27.97a84.8 84.8 0 0023.344 7.445c-9.625 21.323-20.047 37.488-30.948 48.017a21.506 21.506 0 01-18.505 5.53 16.058 16.058 0 01-11.911-8.827c-40.945-86.888-21.962-185.529-14.464-216.104 4.52.478 9.04 1.01 13.507 1.435 25.95 2.712 51.952 2.925 77.848 2.712 25.897.266 51.9.16 77.849-2.34 4.573-.425 9.093-.903 13.613-1.435z"/><path class="cls-4" d="M1232.974 367.45s6.886 88.939-37.553 102.582c-44.44 13.643-5.337-108.55-92.42-147.953 0 0 130.521 227.538-166.24 249.312-296.762-21.774-166.24-249.312-166.24-249.312-87.085 39.404-47.982 161.596-92.422 147.953s-37.552-102.583-37.552-102.583c-77.439 250.113 284.82 238.584 296.213 238.16 11.392.424 373.652 11.953 296.214-238.16z"/><path class="cls-4" d="M1034.205 605.797l-97.72 8.553-97.72-8.553-11.965 15.754s44.46 23.929 109.685 23.929c65.224 0 109.684-23.929 109.684-23.929z"/><path d="M741.127 289.236s21.293-86.63 123.086-87.39c0 0-16.712-101.793 49.377-124.582s79.429-54.277 79.429-54.277L955.37 41.56l-95.716 44.06-15.193 53.175-5.12 41.021L804.2 192.73l-54.736 30.386-16.671 55.454z" fill="#d18d66"/><path class="cls-4" d="M936.76 222.714s57.543 60.134 148.378 22.438c25.063-10.401 54.813-3.473 70.093 18.951a57.295 57.295 0 019.916 29.174s42.426-35.977-68.482-89.912c0 0-50.137 54.65-159.906 19.349z"/><path class="cls-3" d="M1244.272 362.352a182.75 182.75 0 0111.592 80.507c-2.446 27.439-11.858 54.718-27.917 77.477a165.682 165.682 0 01-27.917 30.522c-4.998 4.786-10.741 8.508-16.112 12.71-5.69 3.722-11.38 7.444-17.282 10.794-23.557 13.4-48.868 22.387-74.445 29.034a379.4 379.4 0 01-42.7 8.614c8.72 35.84 26.534 136.022-16.59 227.537a37.377 37.377 0 01-27.333 20.685 46.585 46.585 0 01-7.657.692 42.521 42.521 0 01-29.406-11.858c-11.326-10.901-21.961-26.429-31.746-46.316-9.784 19.887-20.42 35.415-31.745 46.316a42.521 42.521 0 01-29.406 11.858 46.585 46.585 0 01-7.658-.692 37.377 37.377 0 01-27.332-20.685c-43.284-91.887-25.152-192.494-16.537-227.962a396.528 396.528 0 01-42.7-8.562c-25.471-6.7-50.73-15.74-74.286-29.033-5.85-3.35-11.539-7.126-17.176-10.848-5.37-4.201-11.113-7.923-16.112-12.656-10.528-8.774-19.675-19.302-27.757-30.47-16.112-22.652-25.418-49.878-27.864-77.157a182.219 182.219 0 0111.486-80.4c2.552-6.329 5.211-12.656 9.093-18.718 1.914-2.978 3.403-6.275 5.743-8.987l6.647-8.295a116.163 116.163 0 0133.606-24.993 121.283 121.283 0 0135.043-11.38c.053-1.701.213-3.35.319-5.104.319-3.935.85-7.817 1.542-11.699.532-3.935 1.649-7.71 2.446-11.539 1.01-3.828 2.287-7.55 3.457-11.326a113.893 113.893 0 0124.62-40.839 54.268 54.268 0 014.147-4.413l4.573-3.935c3.138-2.553 6.01-5.424 9.519-7.338l10.156-6.435c3.563-1.754 7.232-3.297 10.848-4.945l5.477-2.446c1.861-.638 3.722-1.117 5.637-1.702l11.273-3.297c4.36-1.01 8.774-1.701 13.134-2.392a203.568 203.568 0 011.49-22.76 165.92 165.92 0 017.178-31.745c6.806-20.685 19.462-41.105 38.552-54.292a97.396 97.396 0 0130.948-14.251 229.7 229.7 0 0027.598-9.093c17.6-7.232 34.245-17.548 44.295-31.533l.478-.638 1.277-1.649a22.666 22.666 0 013.084-2.871 18.595 18.595 0 017.763-3.456 19.74 19.74 0 0115.687 3.562 19.525 19.525 0 015.424 6.381l.85 1.808.426.958.745 1.914c1.01 2.552 1.914 5.158 2.765 7.763a109.6 109.6 0 015.53 33.182 80.084 80.084 0 01-1.755 17.388c-.266 1.436-.691 2.872-1.063 4.307l-.585 2.127-.266 1.277a14.557 14.557 0 00-.479 4.52c.054 5.902 4.786 13.134 10.901 19.727 12.762 13.347 29.779 24.674 45.944 37.914 8.136 6.647 16.271 13.826 23.503 23.025a57.702 57.702 0 018.987 16.272 39.626 39.626 0 012.18 11.539c9.518 4.095 26.694 12.443 42.54 25.046 29.725 23.556 41.53 51.314 34.617 80.72 1.117.478 2.234.85 3.297 1.382a112.717 112.717 0 0133.82 24.94l6.7 8.348c2.34 2.765 3.829 6.009 5.743 9.04 3.935 6.062 6.54 12.443 9.146 18.824zm-12.603 78.22a166.13 166.13 0 00-8.401-70.403 89.792 89.792 0 00-7.126-15.9c-1.489-2.393-2.552-5.105-4.36-7.285l-5.105-6.753a100.543 100.543 0 00-26.853-21.323c-20.473-11.646-44.349-18.452-69.873-24.408 12.71-3.882 26.162-4.573 39.563-3.669a122.332 122.332 0 0115.633 2.446c8.402-44.295-47.751-72.212-65.83-79.975a58.238 58.238 0 01-3.617 2.711c-3.137 2.34-6.487 4.308-9.784 6.328a133.165 133.165 0 01-20.738 9.625 151.875 151.875 0 01-43.923 8.88c-7.392-.106-14.783.213-22.068-.797-3.616-.479-7.285-.585-10.9-1.33l-10.69-2.18a89.096 89.096 0 01-10.475-2.712l-10.369-3.137c-6.753-2.5-13.347-5.318-19.994-7.976 6.966 1.808 13.773 3.775 20.685 5.423l10.53 1.755a77.509 77.509 0 0010.475 1.436l10.528.744c3.51.32 7.02-.053 10.476 0 7.02.16 13.879-1.116 20.738-1.808a139.248 139.248 0 0038.606-12.868 117.586 117.586 0 0016.91-10.635c2.552-2.02 5.21-4.041 7.55-6.275 1.17-1.063 2.34-2.18 3.403-3.35a3.338 3.338 0 00.585-.638c.213-5.424-2.286-11.273-6.912-17.335-5.318-6.807-12.443-13.294-20.048-19.462-15.208-12.603-32.49-23.77-48.017-39.829a83.764 83.764 0 01-10.688-14.091 42.063 42.063 0 01-5.956-19.143 37.48 37.48 0 011.064-10.635l.585-2.446.425-1.542a20.057 20.057 0 00.745-3.084 57.932 57.932 0 001.329-12.922 88.772 88.772 0 00-4.52-26.747 148.089 148.089 0 00-2.233-6.275 98.302 98.302 0 01-23.291 21.855 152.165 152.165 0 01-28.874 15.315 248.95 248.95 0 01-30.257 10.05 74.333 74.333 0 00-24.195 11.113c-14.57 10.05-24.78 25.897-30.629 43.657a144.918 144.918 0 00-6.221 27.651 164.087 164.087 0 00-1.17 28.237l.585 9.624-10.104 1.808c-6.7 1.223-13.506 1.968-20.1 3.457l-9.625 2.818c-1.648.479-3.243.904-4.838 1.436l-4.52 2.074c-2.978 1.382-6.062 2.658-9.04 4.094l-8.242 5.211c-2.925 1.542-5.212 3.935-7.71 6.009l-3.723 3.137a35.395 35.395 0 00-3.35 3.563 93.716 93.716 0 00-20.1 33.394c-.957 3.19-2.074 6.328-2.925 9.572-.638 3.297-1.648 6.487-2.074 9.784a105.924 105.924 0 00-1.276 9.944c-.106.797-.16 1.595-.213 2.446a70.459 70.459 0 0122.44 5.264c-12.868 4.573-24.833 7.87-36.531 11.486-11.646 3.563-23.131 6.966-33.447 12.656a95.784 95.784 0 00-27.067 21.27l-5.158 6.86c-1.808 2.18-2.871 4.892-4.36 7.285-2.978 4.785-5.105 10.422-7.179 15.952a167.07 167.07 0 00-8.508 70.617 135.641 135.641 0 0024.674 65.246c6.966 9.412 14.73 18.346 23.982 25.896 4.307 4.095 9.412 7.285 14.144 11.008 5.052 3.243 10.05 6.54 15.315 9.518 21.11 11.805 44.295 20.473 68.224 26.8 47.964 13.028 98.64 16.644 149.103 18.133 25.259-1.01 50.517-1.967 75.456-5.105 24.886-2.765 49.613-6.912 73.542-13.4 23.928-6.38 47.007-15.102 68.117-26.853 5.211-2.978 10.21-6.275 15.261-9.519 4.68-3.669 9.785-6.86 14.092-10.954 9.2-7.55 16.856-16.537 23.876-25.843a134.348 134.348 0 0024.566-64.98zm-218.018 389.882c40.785-86.516 22.12-184.678 14.57-215.732-4.52.532-9.04 1.01-13.613 1.436-25.95 2.499-51.952 2.605-77.849 2.34-25.896.212-51.899 0-77.848-2.713-4.467-.425-8.987-.957-13.507-1.435-7.498 30.575-26.481 129.216 14.464 216.104a16.058 16.058 0 0011.91 8.827 21.506 21.506 0 0018.506-5.53c10.9-10.529 21.323-26.694 30.948-48.017a84.8 84.8 0 01-23.344-7.445c-11.805-6.168-22.6-15.527-27.226-27.97 11.22 6.328 22.174 9.784 33.022 12.283a168.533 168.533 0 0033.075 3.297 164.524 164.524 0 0033.075-3.243c10.901-2.5 21.855-5.956 33.022-12.337-4.626 12.39-15.42 21.749-27.226 27.97a84.467 84.467 0 01-23.397 7.392c9.678 21.376 20.1 37.541 31.001 48.07a21.506 21.506 0 0018.505 5.53 16.058 16.058 0 0011.912-8.827z"/><ellipse class="cls-6" cx="912.722" cy="127.336" rx="41.401" ry="17.472" transform="rotate(-65.914 912.722 127.336)"/><circle class="cls-6" cx="886.763" cy="185.406" r="13.24" transform="rotate(-45.749 886.763 185.406)"/><path d="M890.284 825.199a21.506 21.506 0 01-18.505 5.53 16.058 16.058 0 01-11.911-8.828c-18.884-40.073-25.007-82.634-25.401-119.876-.487 39.185 5.055 85.254 25.4 128.43a16.057 16.057 0 0011.912 8.826 21.505 21.505 0 0018.505-5.53c10.9-10.529 21.323-26.694 30.948-48.017-1.228-.212-2.447-.494-3.67-.753-8.585 17.5-17.748 31.013-27.278 40.218zm123.366-3.298a16.058 16.058 0 01-11.91 8.828 21.506 21.506 0 01-18.506-5.53c-9.532-9.207-18.697-22.724-27.32-40.265-1.225.257-2.447.535-3.68.746 9.677 21.377 20.1 37.542 31 48.071a21.505 21.505 0 0018.505 5.53 16.057 16.057 0 0011.912-8.827c20.362-43.193 25.905-89.288 25.412-128.487-.39 37.258-6.512 79.842-25.412 119.934z" fill="#c7865f"/><path d="M798.12 202.896c-6.86-35.678 20.584-68.612 56.262-68.612a57.982 57.982 0 0157.634 57.635v71.356c8.234 0 16.467-1.372 24.7-1.372s15.095 0 23.329 1.372v-71.356a57.982 57.982 0 0157.634-57.635c35.678 0 63.123 32.934 57.634 68.612l-15.095 83.707c53.518 23.328 94.685 64.495 94.685 115.268v31.562c0 42.54-27.445 78.217-67.24 101.546-39.795 24.7-91.94 38.422-150.946 38.422S825.565 559.68 785.77 534.98c-38.422-23.328-65.867-59.007-65.867-101.546V401.87c0-50.773 39.795-91.94 93.312-115.268z" fill-rule="evenodd" fill="#24170e"/><path class="cls-9" d="M1137.064 433.433c0 67.24-89.196 122.13-198.975 122.13s-198.975-54.89-198.975-122.13V401.87h397.95v31.562z"/><path d="M815.96 200.152c-5.49-24.7 13.722-48.028 38.422-48.028a39.824 39.824 0 0139.795 39.795v90.567c13.723-1.372 27.445-2.744 42.54-2.744 13.722 0 27.445 1.372 41.167 2.744V191.92a39.824 39.824 0 0139.795-39.795c24.7 0 43.912 23.328 39.795 48.028l-17.84 98.801c57.635 21.956 97.43 60.379 97.43 104.29 0 67.24-89.196 122.13-198.975 122.13s-198.975-54.89-198.975-122.13c0-43.911 38.423-82.334 96.057-104.29z" fill="#c68959" fill-rule="evenodd"/><path class="cls-11" d="M843.875 368.846l-1.733 1.733-1.734-1.734a23.128 23.128 0 00-32.707 0 23.128 23.128 0 000 32.708l1.733 1.733 26.225 26.225a9.169 9.169 0 0012.966 0l27.958-27.958a23.128 23.128 0 000-32.707 23.128 23.128 0 00-32.708 0z"/><path class="cls-3" d="M842.143 437.503a14.433 14.433 0 01-10.243-4.233l-27.959-27.958a28.444 28.444 0 0138.2-42.068 28.445 28.445 0 0138.201 42.068l-27.956 27.958a14.437 14.437 0 01-10.243 4.233zm-18.09-70.115a17.81 17.81 0 00-12.592 30.405l27.958 27.958a3.868 3.868 0 005.448 0l27.956-27.958a17.809 17.809 0 000-25.186 18.236 18.236 0 00-25.188 0l-.003.005-5.486 5.479-5.492-5.479a17.702 17.702 0 00-12.6-5.224z"/><path class="cls-11" d="M1032.56 368.846l-1.733 1.733-1.733-1.734a23.128 23.128 0 00-32.708 0 23.128 23.128 0 000 32.708l1.734 1.733 26.224 26.225a9.169 9.169 0 0012.967 0l27.957-27.958a23.128 23.128 0 000-32.707 23.128 23.128 0 00-32.707 0z"/><path class="cls-3" d="M1030.827 437.503a14.433 14.433 0 01-10.243-4.233l-27.958-27.958a28.445 28.445 0 0138.201-42.068 28.445 28.445 0 0138.202 42.068l-27.959 27.958a14.437 14.437 0 01-10.243 4.233zm-18.087-70.115a17.812 17.812 0 00-12.595 30.405l27.958 27.958a3.868 3.868 0 005.448 0l27.958-27.958a17.83 17.83 0 000-25.186 18.232 18.232 0 00-25.185 0l-.008.005-5.489 5.474-5.489-5.474a17.696 17.696 0 00-12.598-5.224zm-58.28 141.403c4.719-3.469 7.644-8.348 7.644-13.864 0-10.754-11.011-19.182-25.068-19.182a5.318 5.318 0 000 10.635c8.506 0 14.433 4.502 14.433 8.547 0 4.046-5.927 8.548-14.433 8.548a5.318 5.318 0 100 10.635c8.506 0 14.433 4.502 14.433 8.542 0 4.045-5.927 8.548-14.433 8.548a5.318 5.318 0 100 10.635c14.057 0 25.068-8.428 25.068-19.183 0-5.516-2.925-10.394-7.644-13.861z"/><path d="M538.72 392.256s46.476 126.304-4.485 201.276c-50.953 74.98-202.412 122.351-290.258 86.073-82.393-34.02-104.118-127.381-74.537-176.005 0 0-25.223-63.659-52.435-113.535-30.199-55.358-61.251-114.552-98.228-189.044-31.488-63.424 50.176-100.92 85.441-47.24 28.92 44.02 127.856 200.869 127.856 200.869s24.792-209.367 31.916-260.402c8.435-60.421 85.39-57.735 89.376 4.048 3.208 49.726 5.585 191.254 5.585 191.254s12.663-26.54 55.738-18.538c21.533 4 32.011 28.264 35.047 59.611l2.443 8.39c8.108-22.84 54.858-30.373 74.396 13.045z" fill="#f5d3c0"/><path class="cls-13" d="M452.179 339.013s-8.841 110.993 4.318 134.532c13.164 23.54 43.818 24.323 43.818 24.323s-29.745 40.53-55.983 23.893c-26.235-16.638-25.617-40.137-25.617-40.137s21.892-54.023 26.39-88.358c4.499-34.336 7.074-54.253 7.074-54.253z"/><path class="cls-13" d="M369.568 363.804s15.723 33.987 9.534 57.659a404.715 404.715 0 01-13.006 41.038s1.009 19.136 21.014 17.92a112.368 112.368 0 0036.567-8.974s-16.9 36.452-47.112 33.712c-30.209-2.736-53.754-38.496-44.788-50.85 8.97-12.357 31.425-26.175 33.493-51.605 2.066-25.43 4.298-38.9 4.298-38.9z"/><path class="cls-13" d="M314.544 568.381l21.601-17.302s25.398 9.462 48.05.21c22.652-9.253 27.909-17.926 27.909-17.926s3.647 11.104 27.121 12.728c23.478 1.623 79.555-44.447 84.48-77.041 4.923-32.59-22.236 63.61-72.408 51.002-50.17-12.611-32.68-35.362-32.68-35.362s-32.522 29.21-56.391 18.451c-23.871-10.756-34.6-43.198-34.6-43.198l-14.178 9.943s16.565 41.16 10.835 59.183a390.472 390.472 0 00-9.739 39.312z"/><path class="cls-13" d="M474.595 646.842a44.523 44.523 0 00-5.13-3.866s-169.512 31.448-224.177-48.368c-54.662-79.813-9.649-182.244-9.649-182.244l-70.04 81.784a797.276 797.276 0 013.841 9.452c-29.581 48.624-7.856 141.985 74.537 176.005 64.258 26.536 162.52 8.286 230.618-32.763zM303.232 67.166c10.726-5.766 18.033-9.843 24.74-12.045-24.494-12.567-58.532.089-63.982 39.127-6.105 43.728-25.18 203.7-30.516 248.6l.895 11.676s33.804-23.991 39.283-84.41c5.48-60.42 4.299-189.36 29.58-202.948z"/><path class="cls-13" d="M107.823 305.275C68.765 242.264 28.562 159.965 28.738 138.4c-15.953 12.416-23.643 35.067-9.96 62.62 36.976 74.492 68.028 133.686 98.227 189.044 23.278 42.669 45.091 95.39 50.912 109.744l32.755-45.63s-53.122-84.81-92.85-148.904z"/><path class="cls-3" d="M565.312 459.674a377 377 0 00-17.442-74.864 10.68 10.68 0 00-1.87-3.199 136.032 136.032 0 00-10.562-37.694c-11.055-24.57-31.73-38.635-55.305-37.7a48.724 48.724 0 00-22.424 6.379 111.918 111.918 0 00-7.167-24.958c-9.534-21.98-24.196-28.945-34.815-30.917-21.587-4.01-36.894-.398-47.407 5.172-.834-42.602-2.776-131.01-5.164-168.032-1.742-26.988-19.219-56.614-53.472-57.885-34.11-1.216-53.55 26.612-57.24 53.046-5.426 38.856-21.234 170.675-28.375 230.575-29.327-46.407-90.262-142.667-111.802-175.452-10.083-15.348-24.12-25.4-40.593-29.073a60.89 60.89 0 00-43.68 6.56c-23.116 13.266-38.186 43.279-19.748 80.421 33.873 68.235 65.148 128.422 98.422 189.408 22.351 40.97 43.63 92.06 49.973 107.629-13.551 25.901-15.204 60.58-4.249 94.052 13.684 41.805 45.236 75.57 86.57 92.637 21.489 8.874 47.03 13.305 74.785 13.305 28.763 0 59.907-4.76 91.377-14.267 60.344-18.23 111.585-51.498 137.069-88.995 22.65-33.323 30.427-79.13 23.119-136.148zM461.369 338.861c2.205-6.215 10.281-10.821 19.638-11.204 6.963-.273 24.298 1.588 34.86 25.064 17.838 39.65 11.767 92.373-15.107 131.192-11.302 16.325-36.485 31.652-53.29 27.713-9.023-2.112-14.66-10.419-16.756-24.69a10.695 10.695 0 00-.886-2.956c17.377-30.058 32.018-91.68 30.586-143.116a10.762 10.762 0 00.955-2.003zm-49.561-61.042c8.111 1.508 14.342 7.512 19.047 18.358 19.522 45.005 1.026 144.915-21.18 179.67-9.316 14.576-28.434 21.612-44.463 16.383-13.928-4.55-21.149-16.986-20.432-35.103a157.917 157.917 0 008.79-9.829c23.188-28.266 30.574-58.624 21.36-87.792-4.541-14.38-13.507-20.127-20.227-22.418a31.322 31.322 0 00-1.53-.473c4.701-20.101 13.136-42.434 14.623-46.305 1.42-2.432 12.097-18.41 44.012-12.491zM27.468 192.51c-13.057-26.299-2.771-44.243 11.208-52.265 16.368-9.395 40.742-7.022 55.655 15.683 28.536 43.436 126.756 199.135 127.744 200.703a10.73 10.73 0 0019.731-4.462c.248-2.092 24.861-209.838 31.89-260.18 3.443-24.656 20.11-35.154 35.192-34.568 21.058.782 31.674 19.56 32.853 37.822 2.943 45.64 5.217 170.984 5.527 188.666-2.712 7.139-11.696 31.563-16.124 52.959-22.468 5.34-48.604 23.53-72.435 40.116l-6.34 4.402c-28.195 19.495-63.782 69.078-81.658 95.567-9.584-22.785-26.83-62.09-45.206-95.769-33.137-60.74-64.29-120.69-98.037-188.674zm496.977 391.25c-22.81 33.562-69.737 63.661-125.527 80.515-56.343 17.021-113.077 17.647-151.766 1.669-48.644-20.087-67.472-58.418-74.365-79.478-9.574-29.251-7.703-60.284 4.88-80.999 2.098-3.315 52.591-82.704 86.905-106.43l6.394-4.439c22.864-15.911 61.117-42.534 76.814-37.198 1.22.417 4.461 1.52 6.688 8.57 16.972 53.728-48.483 95.935-49.134 96.346a10.747 10.747 0 00-3.907 13.827c.242.494 23.985 49.694 3.16 83.079a10.73 10.73 0 1018.208 11.358c21.37-34.26 8.587-77.353 1.543-95.427.18-.136.363-.273.549-.415 4.107 18.484 15.919 32.095 33.662 37.89 18.412 6.012 38.731 2.118 54.113-9.174 7.042 20.528 21.2 27.026 29.919 29.067a45.495 45.495 0 0010.409 1.163c24.615-.002 51.851-17.968 65.413-37.556a163.176 163.176 0 0023.064-50.008c7.316 41.355 9.988 97.899-17.022 137.64z"/><path class="cls-9" d="M389.506 140.698c-.262 0-.525-.013-.792-.038a8.338 8.338 0 01-7.519-9.085c3.374-35.778-7.26-96.64-50.166-107.647a8.339 8.339 0 114.145-16.155c53.331 13.682 66.67 82.47 62.624 125.369a8.34 8.34 0 01-8.292 7.556zM113.016 473.49a8.34 8.34 0 01-7.781-5.34c-21.985-56.987-86.651-169.12-87.3-170.247a8.338 8.338 0 0114.438-8.343c2.684 4.643 65.967 114.384 88.422 172.589a8.343 8.343 0 01-7.779 11.34zm191.031 261.09c-45.354 0-79.766-14.376-102.352-28.182-31.41-19.201-47.138-41.153-47.791-42.078a8.339 8.339 0 0113.607-9.643c2.346 3.292 58.808 80.38 174.056 59.811a8.338 8.338 0 112.931 16.417 229.87 229.87 0 01-40.451 3.674zm-51.26-691.175a8.337 8.337 0 01-5.595-14.52c.784-.71 19.476-17.4 42.062-21.135a8.339 8.339 0 012.722 16.453c-17.68 2.924-33.46 16.927-33.617 17.068a8.319 8.319 0 01-5.572 2.134zM585.871 588.49a8.34 8.34 0 01-6.66-13.348c42.432-56.467 7.734-147.81 7.378-148.726a8.339 8.339 0 0115.542-6.048 253.016 253.016 0 0113.45 57.6c4.963 43.464-3.003 80.53-23.037 107.191a8.327 8.327 0 01-6.673 3.331z"/></g></g></svg>