<svg xmlns="http://www.w3.org/2000/svg" viewBox="0 0 607.904 834.223"><defs><style>.cls-1{fill:#ae724a}.cls-2{fill:#24170e}.cls-3{fill:#945d3c}.cls-5{fill:#fff}</style></defs><g id="Layer_2" data-name="Layer 2"><g id="Layer_1-2" data-name="Layer 1"><path class="cls-1" d="M180.379 569.3s-69.767 92.241-49.871 132.266 40.475 1.446 40.475 1.446l31.673-37.417 1.153-88.968z"/><path class="cls-2" d="M145.802 728.42a20.87 20.87 0 01-3.043-.22c-5.455-.808-13.167-3.94-18.95-14.271-11.886-21.228-9.158-60.614 6.786-98.006 23.043-54.03 56.75-57.994 58.175-58.138l2.01 20.139-1.005-10.07 1.21 10.045c-.963.138-23.816 3.854-41.774 45.964-14.782 34.662-15.022 67.18-7.744 80.182.798 1.427 2.413 3.863 4.256 4.135 6.764 1.025 26.792-18.632 41.219-40.39l16.867 11.18c-7.905 11.925-34.662 49.447-58.007 49.45z"/><path class="cls-1" d="M427.525 569.3s69.766 92.241 49.87 132.266-40.474 1.446-40.474 1.446l-31.673-37.417-1.154-88.968z"/><path class="cls-2" d="M462.101 728.42a20.87 20.87 0 003.044-.22c5.455-.808 13.167-3.94 18.95-14.271 11.885-21.228 9.158-60.614-6.786-98.006-23.044-54.03-56.75-57.994-58.175-58.138l-2.01 20.139 1.004-10.07-1.21 10.045c.963.138 23.817 3.854 41.774 45.964 14.783 34.662 15.023 67.18 7.745 80.182-.798 1.427-2.414 3.863-4.257 4.135-6.763 1.025-26.79-18.632-41.218-40.39l-16.868 11.18c7.906 11.925 34.662 49.447 58.007 49.45z"/><ellipse class="cls-2" cx="303.952" cy="820.671" rx="133.892" ry="13.552"/><path class="cls-1" d="M576.287 352.196a158.064 158.064 0 017.994 66.986 127.825 127.825 0 01-23.375 61.825c-6.678 8.854-13.963 17.405-22.716 24.589-4.098 3.896-8.955 6.931-13.407 10.422-4.807 3.086-9.563 6.223-14.52 9.056-20.086 11.182-42.044 19.479-64.811 25.55-22.767 6.173-46.293 10.119-69.97 12.75-23.73 2.985-47.761 3.895-71.793 4.857-48.013-1.417-96.229-4.857-141.864-17.253-22.767-6.02-44.826-14.267-64.912-25.499-5.009-2.833-9.764-5.97-14.57-9.056-4.504-3.542-9.36-6.577-13.459-10.473a134.806 134.806 0 01-22.817-24.639 129.055 129.055 0 01-23.476-62.078 158.959 158.959 0 018.095-67.188c1.973-5.262 3.997-10.625 6.83-15.179 1.417-2.276 2.429-4.857 4.149-6.93l4.908-6.527a91.133 91.133 0 0125.752-20.238c9.815-5.413 20.743-8.651 31.823-12.041 11.13-3.44 22.514-6.577 34.758-10.928a67.038 67.038 0 00-21.35-5.01c.05-.809.1-1.567.202-2.326.253-3.137.657-6.325 1.214-9.461.405-3.137 1.366-6.173 1.973-9.31.81-3.086 1.872-6.07 2.783-9.106a89.166 89.166 0 0119.124-31.773 33.678 33.678 0 013.187-3.39l3.542-2.985c2.378-1.973 4.553-4.25 7.336-5.717l7.842-4.958c2.833-1.366 5.768-2.58 8.6-3.896l4.301-1.973c1.518-.506 3.036-.91 4.604-1.366l9.158-2.682c6.273-1.416 12.75-2.124 19.124-3.288l9.613-1.72-.557-9.158a156.12 156.12 0 011.113-26.865 137.882 137.882 0 015.92-26.309c5.565-16.898 15.28-31.975 29.142-41.537a70.724 70.724 0 0123.02-10.574 236.862 236.862 0 0028.788-9.562 144.777 144.777 0 0027.472-14.571 93.53 93.53 0 0022.16-20.794 140.459 140.459 0 012.125 5.97 84.462 84.462 0 014.3 25.449 55.12 55.12 0 01-1.265 12.294 19.084 19.084 0 01-.708 2.934l-.405 1.468-.556 2.327a35.66 35.66 0 00-1.012 10.119 40.02 40.02 0 005.666 18.213 79.697 79.697 0 0010.17 13.407c14.773 15.28 31.216 25.904 45.686 37.895 7.235 5.869 14.014 12.041 19.074 18.517 4.401 5.768 6.779 11.333 6.577 16.494a3.177 3.177 0 01-.557.607c-1.012 1.113-2.125 2.175-3.238 3.187-2.226 2.125-4.756 4.048-7.184 5.97a111.876 111.876 0 01-16.089 10.119 132.488 132.488 0 01-36.73 12.244c-6.527.657-13.054 1.872-19.732 1.72-3.289-.05-6.628.303-9.967 0l-10.018-.708a73.745 73.745 0 01-9.967-1.366l-10.017-1.67c-6.577-1.568-13.053-3.44-19.681-5.16 6.324 2.53 12.598 5.21 19.023 7.588l9.866 2.985a84.768 84.768 0 009.967 2.58l10.169 2.075c3.44.708 6.931.81 10.372 1.265 6.931.961 13.963.658 20.996.759a144.5 144.5 0 0041.79-8.45 126.7 126.7 0 0019.732-9.157c3.137-1.922 6.324-3.794 9.309-6.02a55.409 55.409 0 003.44-2.58c17.202 7.386 70.629 33.948 62.635 76.092a116.394 116.394 0 00-14.874-2.327c-12.75-.86-25.55-.203-37.642 3.49 24.285 5.667 47.001 12.143 66.48 23.223a95.661 95.661 0 0125.55 20.288l4.857 6.425c1.72 2.075 2.732 4.655 4.148 6.932a85.432 85.432 0 016.78 15.127zm-104.02 133.415c26.915-33.998 35.972-77.003 25.6-120.969-25.145-106.297-183.503-103.514-194.178-103.21-10.726-.304-169.033-3.087-194.178 103.21-10.372 43.966-1.316 86.97 25.6 120.97 35.365 44.724 96.836 70.324 168.578 70.324s133.213-25.6 168.578-70.325zm-81.557 99.265c7.184 29.547 24.942 122.942-13.863 205.258a15.278 15.278 0 01-11.333 8.398 20.462 20.462 0 01-17.606-5.261c-10.372-10.018-20.288-25.398-29.496-45.737a80.366 80.366 0 0022.26-7.032c11.233-5.92 21.503-14.824 25.905-26.613-10.625 6.072-21.047 9.36-31.419 11.738a156.537 156.537 0 01-31.47 3.086 160.35 160.35 0 01-31.468-3.136c-10.321-2.378-20.744-5.667-31.419-11.688 4.402 11.84 14.672 20.744 25.904 26.613a80.684 80.684 0 0022.21 7.083c-9.157 20.288-19.073 35.668-29.445 45.686a20.462 20.462 0 01-17.606 5.262 15.278 15.278 0 01-11.333-8.399c-38.957-82.67-20.896-176.52-13.762-205.612 4.3.455 8.601.961 12.85 1.366 24.69 2.58 49.43 2.782 74.07 2.58 24.639.253 49.38.152 74.069-2.226 4.35-.405 8.651-.86 12.952-1.366z"/><path class="cls-3" d="M585.522 349.609s6.552 84.621-35.73 97.602c-42.282 12.98-5.078-103.28-87.933-140.77 0 0 124.184 216.491-158.17 237.208-282.352-20.717-158.168-237.207-158.168-237.207-82.856 37.49-45.652 153.75-87.934 140.769-42.281-12.98-35.729-97.602-35.729-97.602-73.679 237.97 270.993 227 281.832 226.597 10.839.403 355.51 11.372 281.832-226.597z"/><path class="cls-3" d="M396.403 576.385l-92.975 8.137-92.976-8.137-11.383 14.989s42.301 22.767 104.359 22.767c62.057 0 104.359-22.767 104.359-22.767z"/><path d="M117.555 275.193s20.26-82.424 117.11-83.147c0 0-15.901-96.85 46.98-118.533 62.88-21.683 75.572-51.642 75.572-51.642l-35.82 17.672-91.069 41.92-14.455 50.594-4.871 39.029-33.436 12.287-52.078 28.91-15.861 52.762z" fill="#d18d66"/><path class="cls-3" d="M303.689 211.9s54.75 57.215 141.175 21.349c23.846-9.896 52.152-3.304 66.69 18.032a54.513 54.513 0 019.434 27.757s40.367-34.23-65.157-85.546c0 0-47.703 51.995-152.142 18.408z"/><path class="cls-2" d="M596.271 344.759a173.876 173.876 0 0111.03 76.599c-2.328 26.106-11.283 52.06-26.562 73.714a157.637 157.637 0 01-26.561 29.041c-4.756 4.554-10.22 8.095-15.33 12.092-5.414 3.542-10.827 7.083-16.443 10.27-22.413 12.75-46.496 21.3-70.831 27.625a360.98 360.98 0 01-40.627 8.196c8.298 34.1 25.246 129.418-15.785 216.49a35.563 35.563 0 01-26.005 19.68 44.324 44.324 0 01-7.286.658 40.457 40.457 0 01-27.978-11.282c-10.776-10.372-20.895-25.145-30.204-44.067-9.31 18.922-19.428 33.695-30.204 44.067a40.457 40.457 0 01-27.979 11.282 44.324 44.324 0 01-7.285-.658 35.562 35.562 0 01-26.005-19.68c-41.183-87.426-23.931-183.15-15.735-216.895a377.277 377.277 0 01-40.626-8.146c-24.235-6.374-48.267-14.975-70.68-27.624-5.565-3.187-10.978-6.78-16.341-10.32-5.11-3.998-10.574-7.54-15.33-12.042a158.165 158.165 0 01-26.41-28.99C11.764 473.216 2.91 447.312.583 421.358a173.371 173.371 0 0110.928-76.498 104.902 104.902 0 018.652-17.809c1.821-2.833 3.238-5.97 5.464-8.55l6.324-7.893a110.523 110.523 0 0131.975-23.779 115.394 115.394 0 0133.341-10.827c.05-1.619.203-3.187.304-4.857.303-3.744.81-7.437 1.467-11.13.506-3.744 1.568-7.336 2.327-10.979.962-3.643 2.176-7.184 3.289-10.776a108.364 108.364 0 0123.425-38.856 51.633 51.633 0 013.946-4.2l4.351-3.743c2.985-2.429 5.717-5.161 9.056-6.982l9.664-6.122c3.39-1.67 6.88-3.137 10.32-4.705l5.212-2.328c1.77-.607 3.541-1.062 5.363-1.619l10.726-3.137c4.148-.96 8.348-1.619 12.496-2.276a193.683 193.683 0 011.417-21.654 157.864 157.864 0 016.83-30.205c6.476-19.68 18.517-39.108 36.68-51.656a92.668 92.668 0 0129.446-13.559 218.546 218.546 0 0026.258-8.651c16.746-6.88 32.582-16.696 42.144-30.002l.456-.607 1.214-1.569a21.566 21.566 0 012.934-2.732A17.692 17.692 0 01353.98.37a18.781 18.781 0 0114.925 3.39 18.577 18.577 0 015.16 6.07l.81 1.72.405.912.708 1.821c.961 2.428 1.821 4.908 2.631 7.387a104.279 104.279 0 015.262 31.57 76.196 76.196 0 01-1.67 16.544c-.253 1.366-.658 2.732-1.012 4.098l-.556 2.024-.253 1.214a13.85 13.85 0 00-.456 4.3c.05 5.616 4.554 12.497 10.372 18.77 12.142 12.7 28.332 23.476 43.713 36.074 7.74 6.324 15.481 13.154 22.362 21.907a54.9 54.9 0 018.55 15.482 37.701 37.701 0 012.075 10.978c9.056 3.896 25.398 11.84 40.475 23.83 28.281 22.413 39.513 48.823 32.936 76.801 1.063.455 2.125.81 3.137 1.315a107.244 107.244 0 0132.177 23.729l6.375 7.943c2.226 2.63 3.643 5.717 5.464 8.6 3.744 5.769 6.223 11.84 8.702 17.911zm-11.99 74.423a158.064 158.064 0 00-7.994-66.986 85.432 85.432 0 00-6.78-15.127c-1.416-2.277-2.428-4.857-4.148-6.932l-4.857-6.425a95.661 95.661 0 00-25.55-20.288c-19.479-11.08-42.195-17.556-66.48-23.222 12.092-3.694 24.892-4.351 37.642-3.491a116.394 116.394 0 0114.874 2.327c7.994-42.144-45.433-68.706-62.635-76.093a55.409 55.409 0 01-3.44 2.58c-2.985 2.227-6.172 4.099-9.31 6.021a126.7 126.7 0 01-19.73 9.158 144.5 144.5 0 01-41.791 8.449c-7.032-.101-14.065.202-20.996-.76-3.44-.455-6.932-.556-10.372-1.264l-10.17-2.074a84.768 84.768 0 01-9.966-2.58l-9.866-2.986c-6.425-2.378-12.699-5.059-19.023-7.589 6.628 1.72 13.104 3.593 19.68 5.16l10.018 1.67a73.745 73.745 0 009.967 1.366l10.018.709c3.339.303 6.678-.05 9.967 0 6.678.152 13.205-1.063 19.731-1.72a132.488 132.488 0 0036.731-12.244 111.876 111.876 0 0016.089-10.119c2.428-1.922 4.958-3.845 7.184-5.97 1.113-1.012 2.226-2.074 3.238-3.187a3.177 3.177 0 00.557-.607c.202-5.16-2.176-10.726-6.578-16.494-5.059-6.476-11.838-12.648-19.073-18.517-14.47-11.99-30.913-22.615-45.686-37.895a79.697 79.697 0 01-10.17-13.407 40.02 40.02 0 01-5.666-18.213 35.66 35.66 0 011.012-10.12l.556-2.326.405-1.468a19.084 19.084 0 00.708-2.934 55.12 55.12 0 001.265-12.294 84.462 84.462 0 00-4.3-25.449 140.378 140.378 0 00-2.125-5.97 93.53 93.53 0 01-22.16 20.794 144.777 144.777 0 01-27.472 14.57 236.862 236.862 0 01-28.788 9.563 70.724 70.724 0 00-23.02 10.574c-13.863 9.562-23.577 24.64-29.142 41.537a137.882 137.882 0 00-5.92 26.31 156.12 156.12 0 00-1.113 26.864l.557 9.158-9.613 1.72c-6.375 1.163-12.85 1.872-19.124 3.288l-9.158 2.682c-1.568.455-3.086.86-4.604 1.366l-4.3 1.973c-2.833 1.315-5.768 2.53-8.601 3.896l-7.842 4.958c-2.783 1.467-4.958 3.744-7.336 5.717l-3.542 2.985a33.678 33.678 0 00-3.187 3.39 89.166 89.166 0 00-19.124 31.772c-.911 3.036-1.974 6.021-2.783 9.107-.607 3.137-1.568 6.173-1.973 9.31a100.78 100.78 0 00-1.214 9.46 33.203 33.203 0 00-.203 2.328 67.038 67.038 0 0121.35 5.009c-12.243 4.35-23.626 7.487-34.757 10.928-11.08 3.39-22.008 6.628-31.823 12.041a91.133 91.133 0 00-25.753 20.238l-4.907 6.526c-1.72 2.074-2.732 4.655-4.149 6.931-2.833 4.554-4.857 9.917-6.83 15.178a158.959 158.959 0 00-8.095 67.189 129.055 129.055 0 0023.476 62.078 134.806 134.806 0 0022.817 24.639c4.098 3.896 8.955 6.931 13.458 10.473 4.807 3.086 9.562 6.223 14.571 9.056 20.086 11.232 42.145 19.479 64.912 25.5 45.635 12.395 93.85 15.835 141.864 17.252 24.032-.962 48.064-1.872 71.792-4.857 23.678-2.631 47.204-6.578 69.971-12.75 22.767-6.071 44.725-14.368 64.81-25.55 4.958-2.833 9.714-5.97 14.52-9.056 4.453-3.49 9.31-6.526 13.408-10.422 8.753-7.184 16.038-15.735 22.716-24.589a127.825 127.825 0 0023.375-61.825zM376.847 790.134c38.805-82.316 21.047-175.711 13.863-205.258-4.3.506-8.601.961-12.952 1.366-24.69 2.378-49.43 2.479-74.07 2.226-24.638.202-49.378 0-74.068-2.58-4.25-.405-8.55-.91-12.85-1.366-7.135 29.091-25.196 122.942 13.76 205.612a15.278 15.278 0 0011.334 8.398 20.462 20.462 0 0017.606-5.261c10.372-10.018 20.288-25.398 29.446-45.686a80.684 80.684 0 01-22.211-7.083c-11.232-5.87-21.502-14.774-25.904-26.613 10.675 6.021 21.098 9.31 31.419 11.688a160.35 160.35 0 0031.469 3.136 156.537 156.537 0 0031.47-3.086c10.37-2.378 20.793-5.666 31.418-11.738-4.402 11.789-14.672 20.693-25.904 26.613a80.366 80.366 0 01-22.261 7.032c9.208 20.339 19.124 35.72 29.496 45.737a20.462 20.462 0 0017.606 5.261 15.278 15.278 0 0011.333-8.398z"/><ellipse class="cls-5" cx="280.819" cy="121.153" rx="39.391" ry="16.624" transform="rotate(-65.914 280.819 121.153)"/><circle class="cls-5" cx="256.12" cy="176.405" r="12.597" transform="rotate(-45.749 256.12 176.405)"/><path d="M259.47 785.134a20.462 20.462 0 01-17.606 5.261 15.278 15.278 0 01-11.333-8.399c-17.968-38.128-23.792-78.622-24.168-114.056-.463 37.283 4.81 81.115 24.168 122.194a15.278 15.278 0 0011.333 8.398 20.461 20.461 0 0017.606-5.261c10.372-10.018 20.288-25.398 29.446-45.686-1.17-.202-2.329-.47-3.492-.717-8.168 16.65-16.887 29.508-25.954 38.266zm117.377-3.138a15.278 15.278 0 01-11.333 8.4 20.462 20.462 0 01-17.606-5.262c-9.07-8.76-17.79-21.62-25.994-38.31-1.166.244-2.328.51-3.502.71 9.208 20.339 19.124 35.72 29.496 45.737a20.461 20.461 0 0017.606 5.261 15.278 15.278 0 0011.333-8.398c19.374-41.097 24.647-84.953 24.178-122.248-.37 35.448-6.195 75.964-24.178 114.11z" fill="#c7865f"/><path class="cls-5" d="M185.664 669.022a22.324 22.324 0 01-5.491 6.464 22.541 22.541 0 013.273-7.818 22.144 22.144 0 015.44-6.453 21.93 21.93 0 01-3.222 7.807z"/><path class="cls-5" d="M180.324 665.761c-1.106 1.811-6.341 10.876-2.344 13.317 4.029 2.46 9.7-6.338 10.806-8.15 1.087-1.78 6.322-10.845 2.294-13.304-3.998-2.441-9.67 6.357-10.756 8.137zm-10.76 12.637c.409-.951.85-1.883 1.308-2.846.115-.187.179-.362.274-.518a95.324 95.324 0 013.172-6.038 102.06 102.06 0 012.945-5.104 132.734 132.734 0 017.097-10.5c9.95-13.345 18.318-18.696 20.2-17.847 2.015 1.616.138 16.204-12.713 37.252s-24.971 29.382-27.329 28.328a1.723 1.723 0 01-.224-.265c-.012-.05-.074-.089-.099-.19a2.367 2.367 0 01-.128-.42c-.024-.101-.068-.17-.104-.321s-.035-.365-.065-.597a2.577 2.577 0 01-.047-.415c-.03-.232.01-.508 0-.771.014-.163-.004-.346.03-.54-.011-.264.048-.57.056-.865.02-.245.023-.458.043-.703.066-.389.15-.808.185-1.216.052-.225.066-.389.118-.614.092-.501.203-1.034.313-1.566.065-.176.078-.339.142-.514.111-.532.28-1.159.428-1.754.064-.175.097-.37.161-.544.213-.77.446-1.572.709-2.354.007-.082.045-.144.033-.195a39.14 39.14 0 01.705-1.927c.09-.288.161-.545.27-.864.269-.65.563-1.414.839-2.146.121-.269.192-.525.314-.794.37-.888.76-1.808 1.181-2.708a2.518 2.518 0 01.186-.444zM64.739 706.351l-4.935-3.013c.307-4.785.621-9.652 1.285-14.391 2.706-19.527 14.483-28.284 18.858-30.885l75.699 46.22c-6.451 4.807-16.64 15.176-19.228 34.089-.544 3.698-.823 7.386-1.072 11.092l-1.905-1.163-1.906 3.123 3.528 2.155c-.015.376-.062.734-.058 1.079-1.262 20.322-2.234 36.448-22.676 42.615L37.66 751.681c18.785-8.508 20.775-26.37 21.892-44.21l3.279 2.003zm4.339 6.937l6.245 3.813 1.907-3.123-6.246-3.813zm12.491 7.627l6.246 3.813 1.906-3.123-6.245-3.813zm12.491 7.627l6.246 3.813 1.907-3.122-6.246-3.814zm12.492 7.627l6.246 3.813 1.906-3.122-6.245-3.814zm12.491 7.627l6.246 3.814 1.907-3.123-6.246-3.814zm47.274-84.444l3.778 2.307c-.534.875-1.055 1.8-1.59 2.674-.216.425-.433.85-.7 1.287-.547 1.038-1.145 2.087-1.662 3.144l-.707 1.368c-.65 1.276-1.28 2.52-1.85 3.801a3.221 3.221 0 00-.26.57 156.579 156.579 0 00-1.873 4.258l-.499 1.24c-.384 1.05-.781 2.051-1.128 3.04-.154.463-.308.926-.443 1.358a72.269 72.269 0 00-1.03 3.23 6.829 6.829 0 00-.2.821 42.9 42.9 0 00-.876 3.752c-.078.338-.106.664-.165.971-.126.91-.264 1.768-.302 2.602-.033.195-.085.42-.099.583L81.95 650.71c-1.971-1.546-.17-15.451 11.822-35.652l3.842 2.345 1.906-3.123 6.246 3.814-1.907 3.123 6.246 3.813 1.907-3.123 6.246 3.814-1.907 3.123 6.245 3.813 1.907-3.123 6.246 3.814-1.907 3.123 6.246 3.813 1.907-3.123 6.245 3.814-1.906 3.123 6.245 3.813 1.907-3.122 6.246 3.813-1.907 3.123 6.246 3.814 1.907-3.123 6.245 3.813z"/><path class="cls-5" d="M173.635 655.932c-.534.875-1.1 1.73-1.633 2.604l-3.779-2.307-6.245-3.813-6.246-3.814-6.246-3.813-6.246-3.814-6.245-3.814-6.246-3.813-6.246-3.814-6.245-3.813-6.246-3.814-6.246-3.813-6.246-3.814-3.84-2.345c12.472-19.865 24.017-27.82 26.312-26.805l74.761 45.648c-.157.118-.334.267-.473.354-.744.446-1.445.962-2.195 1.49-.247.192-.524.365-.77.558a47.642 47.642 0 00-2.938 2.494 5.656 5.656 0 00-.657.584 70.638 70.638 0 00-2.384 2.36c-.341.35-.664.667-1.005 1.015-.74.792-1.45 1.602-2.21 2.424-.29.337-.563.642-.854.979a156.667 156.667 0 00-2.933 3.61 4.078 4.078 0 00-.387.493c-.88 1.092-1.718 2.252-2.536 3.382l-.895 1.254c-.723.974-1.364 1.954-2.056 2.946-.248.406-.527.793-.825 1.211z"/><path class="cls-2" transform="rotate(-58.592 73.154 713.633)" d="M71.324 709.974h3.659v7.318h-3.659z"/><path class="cls-2" transform="rotate(-58.592 85.645 721.26)" d="M83.816 717.601h3.659v7.318h-3.659z"/><path class="cls-2" transform="rotate(-58.592 98.137 728.887)" d="M96.307 725.228h3.659v7.318h-3.659z"/><path class="cls-2" transform="rotate(-58.592 110.628 736.516)" d="M108.799 732.855h3.659v7.318h-3.659z"/><path class="cls-2" transform="rotate(-58.592 123.12 744.141)" d="M121.29 740.482h3.659v7.318h-3.659z"/><path class="cls-2" transform="rotate(-58.592 107.935 621.563)" d="M106.106 617.903h3.659v7.318h-3.659z"/><path class="cls-2" transform="rotate(-58.592 120.427 629.19)" d="M118.598 625.53h3.659v7.318h-3.659z"/><path class="cls-2" transform="rotate(-58.592 132.918 636.816)" d="M131.089 633.157h3.659v7.318h-3.659z"/><path class="cls-2" transform="rotate(-58.592 145.41 644.443)" d="M143.58 640.784h3.659v7.318h-3.659z"/><path class="cls-2" transform="rotate(-58.592 157.901 652.07)" d="M156.072 648.411h3.659v7.318h-3.659z"/><path class="cls-2" d="M180.173 675.486a22.324 22.324 0 005.49-6.464 21.93 21.93 0 003.224-7.807 22.144 22.144 0 00-5.44 6.453 22.541 22.541 0 00-3.274 7.818zm8.613-4.558c-1.105 1.812-6.777 10.61-10.806 8.15-3.997-2.44 1.238-11.506 2.344-13.317 1.086-1.78 6.758-10.578 10.756-8.137 4.028 2.46-1.207 11.524-2.294 13.304z"/><path d="M147.426 719.64L65.18 669.42s11.48-15.039 14.638-14.947 78.233 47.767 78.233 47.767l3.522 1.335z" fill="#e2eaf7"/><path class="cls-2" d="M161.453 678.761a156.66 156.66 0 011.872-4.259 3.221 3.221 0 01.262-.569c.568-1.282 1.2-2.525 1.85-3.8l.706-1.37c.517-1.056 1.115-2.105 1.662-3.143.267-.437.484-.862.7-1.287.535-.875 1.056-1.8 1.59-2.674l-3.778-2.307 1.906-3.123 3.779 2.307c.534-.874 1.099-1.73 1.633-2.604.298-.418.577-.805.825-1.21.692-.993 1.333-1.973 2.056-2.947l.895-1.254c.818-1.13 1.655-2.29 2.536-3.382a4.078 4.078 0 01.387-.492 156.667 156.667 0 012.933-3.611c.291-.337.563-.642.855-.979.76-.822 1.468-1.632 2.209-2.424.341-.348.664-.666 1.005-1.015a70.638 70.638 0 012.384-2.36 5.656 5.656 0 01.657-.584 47.642 47.642 0 012.938-2.494c.246-.193.523-.366.77-.559.75-.527 1.451-1.043 2.195-1.489.139-.087.316-.236.473-.354l-74.76-45.648c-2.296-1.016-13.841 6.94-26.314 26.805l3.841 2.345-1.906 3.123-3.842-2.345C81.781 635.259 79.98 649.164 81.95 650.71l74.761 45.648c.014-.163.066-.388.099-.583.037-.834.176-1.693.302-2.601.06-.308.087-.634.165-.972a42.9 42.9 0 01.876-3.752 6.829 6.829 0 01.2-.82 72.308 72.308 0 011.03-3.23c.135-.432.29-.896.443-1.359.347-.989.744-1.99 1.128-3.04zm6.744 2.789c-.122.269-.193.525-.314.794a75.96 75.96 0 01-.839 2.146c-.109.32-.18.576-.27.864a39.14 39.14 0 00-.705 1.927c.012.05-.026.113-.033.195a45.135 45.135 0 00-.709 2.354c-.064.175-.097.37-.16.544-.15.595-.318 1.222-.428 1.754-.065.175-.078.338-.143.514-.11.532-.221 1.065-.313 1.566-.052.225-.066.389-.118.614-.034.408-.119.827-.185 1.216-.02.245-.022.458-.043.703-.008.294-.067.601-.057.865-.033.194-.015.376-.029.54.01.263-.03.539 0 .771a2.577 2.577 0 00.047.415c.03.232.028.446.065.597s.08.22.104.32a2.367 2.367 0 00.128.422c.025.1.087.139.1.189a1.723 1.723 0 00.223.265c2.358 1.054 14.477-7.28 27.329-28.328s14.728-35.636 12.714-37.252c-1.883-.85-10.251 4.502-20.2 17.847a132.745 132.745 0 00-7.098 10.5 102.045 102.045 0 00-2.945 5.104 95.3 95.3 0 00-3.172 6.038c-.095.156-.16.331-.274.518-.459.963-.9 1.895-1.308 2.846a2.518 2.518 0 00-.186.444c-.42.9-.81 1.82-1.181 2.708zM37.66 751.68l74.668 45.591c20.442-6.167 21.414-22.293 22.676-42.615-.004-.345.043-.703.059-1.08l-3.53-2.154 1.908-3.123 1.904 1.163c.249-3.706.528-7.394 1.072-11.092 2.587-18.913 12.777-29.282 19.228-34.09l-75.699-46.22c-4.375 2.602-16.152 11.36-18.858 30.886-.664 4.739-.978 9.606-1.285 14.391l4.935 3.013-1.907 3.123-3.28-2.002c-1.116 17.838-3.106 35.701-21.891 44.209zm73.54 53.477L20.013 749.48l8.25-2.208c21.877-5.848 22.89-22.25 24.174-43.03.305-5.345.623-10.852 1.38-16.305a53.537 53.537 0 017.216-20.804 46.436 46.436 0 0113.823-14.495c-3.124-9.067 4.078-27.391 13.593-42.974 11.479-18.8 28.05-36.462 37.357-30.78l82.568 50.415c9.306 5.683 1.197 28.512-10.281 47.312-10.621 17.394-25.62 33.744-35.18 31.637-3.952 2.26-16.495 10.935-19.255 31.114-.718 5.178-1.042 10.553-1.352 15.765-1.291 20.862-2.595 42.445-29.577 49.635z"/><path d="M164.67 174.143c-6.862-35.678 20.583-68.612 56.261-68.612a57.982 57.982 0 0157.634 57.635v71.356c8.234 0 16.467-1.372 24.7-1.372s15.095 0 23.329 1.372v-71.356a57.982 57.982 0 0157.634-57.635c35.678 0 63.123 32.934 57.634 68.612l-15.095 83.707c53.518 23.328 94.685 64.495 94.685 115.268v31.562c0 42.54-27.445 78.218-67.24 101.546-39.795 24.7-91.94 38.422-150.946 38.422s-111.152-13.722-150.947-38.422c-38.422-23.328-65.867-59.007-65.867-101.546v-31.562c0-50.773 39.795-91.94 93.312-115.268z" fill-rule="evenodd" fill="#24170e"/><path d="M503.613 404.68c0 67.24-89.196 122.13-198.975 122.13s-198.975-54.89-198.975-122.13v-31.562h397.95v31.562z" fill="#f8db99"/><path d="M182.509 171.399c-5.49-24.7 13.722-48.028 38.422-48.028a39.824 39.824 0 0139.795 39.795v90.567c13.723-1.372 27.445-2.744 42.54-2.744 13.722 0 27.445 1.372 41.167 2.744v-90.567a39.824 39.824 0 0139.795-39.795c24.7 0 43.912 23.328 39.795 48.028l-17.84 98.801c57.635 21.956 97.43 60.379 97.43 104.29 0 67.24-89.196 122.13-198.975 122.13s-198.975-54.89-198.975-122.13c0-43.911 38.423-82.334 96.057-104.29z" fill="#c68959" fill-rule="evenodd"/><path d="M248.376 364.885c0 17.839-9.606 32.934-21.956 32.934s-21.956-15.095-21.956-32.934 9.606-32.934 21.956-32.934 21.956 15.095 21.956 32.934zm152.319 0c0 17.839-9.606 32.934-21.956 32.934s-21.956-15.095-21.956-32.934 9.606-32.934 21.956-32.934 21.956 15.095 21.956 32.934z" fill="#5d320e"/><path class="cls-2" d="M362.276 447.21c10.119 0 16.848 10.727 12.143 19.732-8.854 16.848-28.484 38.4-70.73 38.4s-61.876-21.552-70.73-38.4c-4.705-9.005 2.024-19.731 12.143-19.731h117.174z"/><path d="M303.689 471.088s-17.019-.405-31.325 4.805a5.758 5.758 0 00-.999 10.328c6.236 3.85 16.645 8.067 32.324 8.067s26.088-4.217 32.323-8.067a5.758 5.758 0 00-.998-10.328c-14.307-5.21-31.325-4.805-31.325-4.805z" fill="#9e3149"/><path class="cls-5" d="M368.104 379.141a6.501 6.501 0 11-6.476 6.476 6.5 6.5 0 016.476-6.476zm26.866-30.912a15.456 15.456 0 11-15.482 15.43 15.46 15.46 0 0115.482-15.43z"/><path class="cls-2" d="M386.015 331.735a37.085 37.085 0 11-37.086 37.085 37.074 37.074 0 0137.086-37.085zM410.4 363.66a15.456 15.456 0 10-15.431 15.481 15.46 15.46 0 0015.43-15.481zm-35.77 21.957a6.501 6.501 0 10-6.527 6.527 6.5 6.5 0 006.527-6.527zm-152.74-53.882a37.085 37.085 0 11-37.086 37.085 37.074 37.074 0 0137.085-37.085zm25.144 31.925a15.456 15.456 0 10-15.43 15.481 15.46 15.46 0 0015.43-15.481zm-35.77 21.957a6.501 6.501 0 10-6.526 6.527 6.5 6.5 0 006.526-6.527z"/><path class="cls-5" d="M231.603 348.229a15.456 15.456 0 11-15.482 15.43 15.46 15.46 0 0115.482-15.43zm-26.865 30.912a6.501 6.501 0 11-6.476 6.476 6.5 6.5 0 016.476-6.476z"/></g></g></svg>